<svg xmlns="http://www.w3.org/2000/svg" xmlns:xlink="http://www.w3.org/1999/xlink" width="100" zoomAndPan="magnify" viewBox="0 0 75.119995 83.04" height="100" preserveAspectRatio="xMidYMid meet" version="1.0"><defs><clipPath id="07af16fbae"><path d="M 33.414062 7.417969 L 40.71875 7.417969 L 40.71875 66.726562 L 33.414062 66.726562 Z M 33.414062 7.417969 " clip-rule="nonzero"/></clipPath><clipPath id="4646d5522d"><path d="M 37.066406 7.417969 C 38.035156 7.417969 38.964844 7.804688 39.648438 8.488281 C 40.332031 9.171875 40.71875 10.101562 40.71875 11.070312 L 40.71875 63.074219 C 40.71875 64.042969 40.332031 64.96875 39.648438 65.65625 C 38.964844 66.339844 38.035156 66.726562 37.066406 66.726562 C 36.097656 66.726562 35.167969 66.339844 34.484375 65.65625 C 33.800781 64.96875 33.414062 64.042969 33.414062 63.074219 L 33.414062 11.070312 C 33.414062 10.101562 33.800781 9.171875 34.484375 8.488281 C 35.167969 7.804688 36.097656 7.417969 37.066406 7.417969 Z M 37.066406 7.417969 " clip-rule="nonzero"/></clipPath><clipPath id="26324f16e4"><path d="M 0.414062 0.417969 L 7.71875 0.417969 L 7.71875 59.726562 L 0.414062 59.726562 Z M 0.414062 0.417969 " clip-rule="nonzero"/></clipPath><clipPath id="e2a6d53854"><path d="M 4.066406 0.417969 C 5.035156 0.417969 5.964844 0.804688 6.648438 1.488281 C 7.332031 2.171875 7.71875 3.101562 7.71875 4.070312 L 7.71875 56.074219 C 7.71875 57.042969 7.332031 57.96875 6.648438 58.65625 C 5.964844 59.339844 5.035156 59.726562 4.066406 59.726562 C 3.097656 59.726562 2.167969 59.339844 1.484375 58.65625 C 0.800781 57.96875 0.414062 57.042969 0.414062 56.074219 L 0.414062 4.070312 C 0.414062 3.101562 0.800781 2.171875 1.484375 1.488281 C 2.167969 0.804688 3.097656 0.417969 4.066406 0.417969 Z M 4.066406 0.417969 " clip-rule="nonzero"/></clipPath><clipPath id="92fea36d5b"><rect x="0" width="8" y="0" height="60"/></clipPath><clipPath id="e276555b77"><path d="M 7.40625 33.421875 L 66.714844 33.421875 L 66.714844 40.726562 L 7.40625 40.726562 Z M 7.40625 33.421875 " clip-rule="nonzero"/></clipPath><clipPath id="43fb911483"><path d="M 66.714844 37.074219 C 66.714844 38.042969 66.332031 38.972656 65.644531 39.65625 C 64.960938 40.339844 64.03125 40.726562 63.0625 40.726562 L 11.0625 40.726562 C 10.09375 40.726562 9.164062 40.339844 8.480469 39.65625 C 7.796875 38.972656 7.410156 38.042969 7.410156 37.074219 C 7.410156 36.105469 7.796875 35.175781 8.480469 34.492188 C 9.164062 33.808594 10.09375 33.421875 11.0625 33.421875 L 63.0625 33.421875 C 64.03125 33.421875 64.960938 33.808594 65.644531 34.492188 C 66.332031 35.175781 66.714844 36.105469 66.714844 37.074219 Z M 66.714844 37.074219 " clip-rule="nonzero"/></clipPath><clipPath id="a153afcf74"><path d="M 0.40625 0.421875 L 59.714844 0.421875 L 59.714844 7.726562 L 0.40625 7.726562 Z M 0.40625 0.421875 " clip-rule="nonzero"/></clipPath><clipPath id="f4fb26e575"><path d="M 59.714844 4.074219 C 59.714844 5.042969 59.332031 5.972656 58.644531 6.65625 C 57.960938 7.339844 57.03125 7.726562 56.0625 7.726562 L 4.0625 7.726562 C 3.09375 7.726562 2.164062 7.339844 1.480469 6.65625 C 0.796875 5.972656 0.410156 5.042969 0.410156 4.074219 C 0.410156 3.105469 0.796875 2.175781 1.480469 1.492188 C 2.164062 0.808594 3.09375 0.421875 4.0625 0.421875 L 56.0625 0.421875 C 57.03125 0.421875 57.960938 0.808594 58.644531 1.492188 C 59.332031 2.175781 59.714844 3.105469 59.714844 4.074219 Z M 59.714844 4.074219 " clip-rule="nonzero"/></clipPath><clipPath id="4236801156"><rect x="0" width="60" y="0" height="8"/></clipPath></defs><g clip-path="url(#07af16fbae)"><g clip-path="url(#4646d5522d)"><g transform="matrix(1, 0, 0, 1, 33, 7)"><g clip-path="url(#92fea36d5b)"><g clip-path="url(#26324f16e4)"><g clip-path="url(#e2a6d53854)"><path fill="#eeeeee" d="M 0.414062 0.417969 L 7.71875 0.417969 L 7.71875 59.726562 L 0.414062 59.726562 Z M 0.414062 0.417969 " fill-opacity="1" fill-rule="nonzero"/></g></g></g></g></g></g><g clip-path="url(#e276555b77)"><g clip-path="url(#43fb911483)"><g transform="matrix(1, 0, 0, 1, 7, 33)"><g clip-path="url(#4236801156)"><g clip-path="url(#a153afcf74)"><g clip-path="url(#f4fb26e575)"><path fill="#eeeeee" d="M 59.714844 0.421875 L 59.714844 7.726562 L 0.40625 7.726562 L 0.40625 0.421875 Z M 59.714844 0.421875 " fill-opacity="1" fill-rule="nonzero"/></g></g></g></g></g></g></svg>
