<svg xmlns="http://www.w3.org/2000/svg" xmlns:xlink="http://www.w3.org/1999/xlink" width="100" zoomAndPan="magnify" viewBox="0 0 75.119995 83.04" height="100" preserveAspectRatio="xMidYMid meet" version="1.0"><defs><clipPath id="2eb70dfca8"><path d="M 14.535156 23.847656 L 61.589844 23.847656 L 61.589844 64.570312 L 14.535156 64.570312 Z M 14.535156 23.847656 " clip-rule="nonzero"/></clipPath><clipPath id="a5323b1efa"><path d="M 14.972656 54.417969 C 15.566406 45.375 16.160156 44.410156 16.976562 43.523438 C 17.71875 42.632812 18.753906 41.816406 20.015625 41.445312 C 21.5 41 23.945312 41.074219 25.425781 41.519531 C 26.6875 41.890625 27.652344 42.78125 28.464844 43.667969 C 29.207031 44.558594 29.800781 45.96875 30.097656 46.929688 C 30.320312 47.597656 30.394531 47.96875 30.320312 48.785156 C 30.097656 50.339844 28.097656 55.828125 27.355469 55.753906 C 26.613281 55.679688 25.277344 48.042969 25.871094 47.820312 C 26.464844 47.523438 30.394531 52.417969 31.136719 54.492188 C 31.578125 55.976562 31.433594 57.382812 31.136719 58.644531 C 30.765625 59.832031 30.246094 61.015625 29.28125 61.90625 C 28.097656 63.019531 26.019531 64.277344 24.242188 64.425781 C 22.535156 64.574219 20.238281 63.980469 18.828125 62.945312 C 17.421875 61.980469 16.457031 60.421875 15.714844 58.273438 C 14.53125 54.714844 14.457031 47.152344 14.605469 42.855469 C 14.679688 39.742188 14.828125 37.441406 15.789062 34.847656 C 16.902344 31.957031 18.828125 28.027344 21.128906 26.398438 C 23.203125 24.988281 26.019531 25.210938 28.539062 24.914062 C 30.988281 24.691406 33.285156 24.765625 36.027344 24.988281 C 39.363281 25.210938 44.480469 25.507812 47 26.472656 C 48.554688 27.0625 49.59375 27.804688 50.484375 28.769531 C 51.375 29.734375 52.113281 31.066406 52.484375 32.328125 C 52.78125 33.589844 52.855469 35.144531 52.558594 36.480469 C 52.261719 37.738281 51.59375 39.148438 50.78125 40.113281 C 49.890625 41.148438 48.628906 42.039062 47.445312 42.558594 C 46.183594 43.078125 45.21875 43.078125 43.367188 43.152344 C 38.992188 43.300781 26.167969 43.078125 21.574219 41.445312 C 19.125 40.554688 17.570312 39.445312 16.53125 37.8125 C 15.417969 36.257812 14.972656 33.589844 15.046875 31.808594 C 15.195312 30.324219 15.789062 28.992188 16.605469 27.878906 C 17.347656 26.769531 18.53125 25.730469 19.71875 25.136719 C 20.980469 24.46875 22.015625 24.394531 23.796875 24.171875 C 27.355469 23.726562 34.101562 23.800781 39.4375 24.097656 C 44.996094 24.394531 52.707031 23.652344 56.339844 26.027344 C 59.007812 27.65625 60.269531 30.472656 61.011719 33.734375 C 62.046875 38.183594 61.011719 50.121094 59.453125 50.710938 C 58.710938 51.007812 56.488281 47.820312 56.414062 47.894531 C 56.265625 47.96875 59.304688 51.007812 59.898438 52.417969 C 60.34375 53.457031 60.492188 54.195312 60.417969 55.308594 C 60.269531 56.792969 59.675781 59.3125 58.636719 60.71875 C 57.527344 62.203125 55.597656 63.464844 53.894531 63.980469 C 52.113281 64.5 49.816406 64.351562 48.183594 63.683594 C 46.480469 63.09375 44.628906 61.3125 43.738281 60.054688 C 43.070312 59.164062 42.847656 58.421875 42.625 57.308594 C 42.402344 55.828125 42.476562 53.308594 43.21875 51.601562 C 43.960938 49.972656 45.886719 48.265625 47.148438 47.449219 C 48.039062 46.859375 48.777344 46.5625 49.890625 46.488281 C 51.449219 46.339844 53.96875 46.5625 55.597656 47.375 C 57.15625 48.191406 58.785156 50.195312 59.527344 51.527344 C 60.121094 52.492188 60.34375 53.234375 60.34375 54.34375 C 60.417969 55.828125 60.046875 58.347656 59.15625 59.90625 C 58.191406 61.460938 56.191406 62.945312 54.785156 63.683594 C 53.820312 64.203125 53.078125 64.351562 51.964844 64.351562 C 50.410156 64.277344 47.964844 64.203125 46.40625 62.796875 C 44.035156 60.644531 42.105469 54.195312 41.515625 49.601562 C 40.921875 44.78125 42.03125 34.699219 43.21875 34.476562 C 44.109375 34.328125 47.964844 40.777344 47 42.335938 C 45.292969 44.929688 28.835938 42.707031 23.722656 41.667969 C 21.054688 41.148438 19.347656 40.703125 17.867188 39.445312 C 16.457031 38.109375 15.34375 35.664062 15.046875 33.882812 C 14.828125 32.476562 15.121094 30.992188 15.566406 29.734375 C 16.085938 28.472656 16.828125 27.210938 18.015625 26.324219 C 19.421875 25.210938 21.203125 24.46875 23.796875 24.171875 C 28.910156 23.507812 42.402344 24.542969 47 26.472656 C 49.371094 27.507812 50.78125 28.769531 51.667969 30.398438 C 52.632812 32.105469 53.003906 34.625 52.558594 36.480469 C 52.1875 38.332031 50.558594 40.40625 49.222656 41.519531 C 48.113281 42.484375 46.925781 42.929688 45.441406 43.078125 C 43.515625 43.300781 40.996094 42.558594 38.695312 42.039062 C 36.324219 41.445312 33.0625 38.480469 31.578125 39.519531 C 29.207031 41.148438 32.097656 54.9375 31.136719 58.570312 C 30.691406 60.273438 30.097656 61.015625 29.28125 61.90625 C 28.464844 62.796875 27.355469 63.609375 26.09375 63.980469 C 24.539062 64.425781 22.015625 64.425781 20.460938 63.90625 C 19.273438 63.464844 18.238281 62.648438 17.421875 61.683594 C 16.605469 60.71875 16.234375 58.347656 15.714844 58.273438 C 15.492188 58.273438 15.195312 59.089844 14.972656 59.015625 C 14.382812 58.792969 14.679688 51.15625 14.972656 48.5625 C 15.121094 47.078125 15.34375 46.117188 15.863281 45.003906 C 16.457031 43.964844 17.347656 43.003906 18.382812 42.335938 C 19.347656 41.667969 20.535156 41.074219 21.792969 41.074219 C 23.351562 41 25.722656 41.59375 27.058594 42.410156 C 28.171875 43.078125 28.910156 44.113281 29.503906 45.152344 C 30.023438 46.265625 30.171875 47.300781 30.320312 48.785156 C 30.46875 50.859375 30.394531 54.714844 29.726562 56.644531 C 29.355469 57.976562 28.910156 58.941406 27.949219 59.832031 C 26.835938 60.867188 24.6875 61.90625 23.203125 62.128906 C 21.941406 62.351562 20.683594 62.054688 19.644531 61.609375 C 18.53125 61.164062 17.421875 60.496094 16.679688 59.460938 C 15.789062 58.199219 14.972656 54.417969 14.972656 54.417969 " clip-rule="nonzero"/></clipPath><clipPath id="3418055cd5"><path d="M 0.535156 0.847656 L 47.589844 0.847656 L 47.589844 41.570312 L 0.535156 41.570312 Z M 0.535156 0.847656 " clip-rule="nonzero"/></clipPath><clipPath id="141710a443"><path d="M 0.972656 31.417969 C 1.566406 22.375 2.160156 21.410156 2.976562 20.523438 C 3.71875 19.632812 4.753906 18.816406 6.015625 18.445312 C 7.5 18 9.945312 18.074219 11.425781 18.519531 C 12.6875 18.890625 13.652344 19.78125 14.464844 20.667969 C 15.207031 21.558594 15.800781 22.96875 16.097656 23.929688 C 16.320312 24.597656 16.394531 24.96875 16.320312 25.785156 C 16.097656 27.339844 14.097656 32.828125 13.355469 32.753906 C 12.613281 32.679688 11.277344 25.042969 11.871094 24.820312 C 12.464844 24.523438 16.394531 29.417969 17.136719 31.492188 C 17.578125 32.976562 17.433594 34.382812 17.136719 35.644531 C 16.765625 36.832031 16.246094 38.015625 15.28125 38.90625 C 14.097656 40.019531 12.019531 41.277344 10.242188 41.425781 C 8.535156 41.574219 6.238281 40.980469 4.828125 39.945312 C 3.421875 38.980469 2.457031 37.421875 1.714844 35.273438 C 0.53125 31.714844 0.457031 24.152344 0.605469 19.855469 C 0.679688 16.742188 0.828125 14.441406 1.789062 11.847656 C 2.902344 8.957031 4.828125 5.027344 7.128906 3.398438 C 9.203125 1.988281 12.019531 2.210938 14.539062 1.914062 C 16.988281 1.691406 19.285156 1.765625 22.027344 1.988281 C 25.363281 2.210938 30.480469 2.507812 33 3.472656 C 34.554688 4.0625 35.59375 4.804688 36.484375 5.769531 C 37.375 6.734375 38.113281 8.066406 38.484375 9.328125 C 38.78125 10.589844 38.855469 12.144531 38.558594 13.480469 C 38.261719 14.738281 37.59375 16.148438 36.78125 17.113281 C 35.890625 18.148438 34.628906 19.039062 33.445312 19.558594 C 32.183594 20.078125 31.21875 20.078125 29.367188 20.152344 C 24.992188 20.300781 12.167969 20.078125 7.574219 18.445312 C 5.125 17.554688 3.570312 16.445312 2.53125 14.8125 C 1.417969 13.257812 0.972656 10.589844 1.046875 8.808594 C 1.195312 7.324219 1.789062 5.992188 2.605469 4.878906 C 3.347656 3.769531 4.53125 2.730469 5.71875 2.136719 C 6.980469 1.46875 8.015625 1.394531 9.796875 1.171875 C 13.355469 0.726562 20.101562 0.800781 25.4375 1.097656 C 30.996094 1.394531 38.707031 0.652344 42.339844 3.027344 C 45.007812 4.65625 46.269531 7.472656 47.011719 10.734375 C 48.046875 15.183594 47.011719 27.121094 45.453125 27.710938 C 44.710938 28.007812 42.488281 24.820312 42.414062 24.894531 C 42.265625 24.96875 45.304688 28.007812 45.898438 29.417969 C 46.34375 30.457031 46.492188 31.195312 46.417969 32.308594 C 46.269531 33.792969 45.675781 36.3125 44.636719 37.71875 C 43.527344 39.203125 41.597656 40.464844 39.894531 40.980469 C 38.113281 41.5 35.816406 41.351562 34.183594 40.683594 C 32.480469 40.09375 30.628906 38.3125 29.738281 37.054688 C 29.070312 36.164062 28.847656 35.421875 28.625 34.308594 C 28.402344 32.828125 28.476562 30.308594 29.21875 28.601562 C 29.960938 26.972656 31.886719 25.265625 33.148438 24.449219 C 34.039062 23.859375 34.777344 23.5625 35.890625 23.488281 C 37.449219 23.339844 39.96875 23.5625 41.597656 24.375 C 43.15625 25.191406 44.785156 27.195312 45.527344 28.527344 C 46.121094 29.492188 46.34375 30.234375 46.34375 31.34375 C 46.417969 32.828125 46.046875 35.347656 45.15625 36.90625 C 44.191406 38.460938 42.191406 39.945312 40.785156 40.683594 C 39.820312 41.203125 39.078125 41.351562 37.964844 41.351562 C 36.410156 41.277344 33.964844 41.203125 32.40625 39.796875 C 30.035156 37.644531 28.105469 31.195312 27.515625 26.601562 C 26.921875 21.78125 28.03125 11.699219 29.21875 11.476562 C 30.109375 11.328125 33.964844 17.777344 33 19.335938 C 31.292969 21.929688 14.835938 19.707031 9.722656 18.667969 C 7.054688 18.148438 5.347656 17.703125 3.867188 16.445312 C 2.457031 15.109375 1.34375 12.664062 1.046875 10.882812 C 0.828125 9.476562 1.121094 7.992188 1.566406 6.734375 C 2.085938 5.472656 2.828125 4.210938 4.015625 3.324219 C 5.421875 2.210938 7.203125 1.46875 9.796875 1.171875 C 14.910156 0.507812 28.402344 1.542969 33 3.472656 C 35.371094 4.507812 36.78125 5.769531 37.667969 7.398438 C 38.632812 9.105469 39.003906 11.625 38.558594 13.480469 C 38.1875 15.332031 36.558594 17.40625 35.222656 18.519531 C 34.113281 19.484375 32.925781 19.929688 31.441406 20.078125 C 29.515625 20.300781 26.996094 19.558594 24.695312 19.039062 C 22.324219 18.445312 19.0625 15.480469 17.578125 16.519531 C 15.207031 18.148438 18.097656 31.9375 17.136719 35.570312 C 16.691406 37.273438 16.097656 38.015625 15.28125 38.90625 C 14.464844 39.796875 13.355469 40.609375 12.09375 40.980469 C 10.539062 41.425781 8.015625 41.425781 6.460938 40.90625 C 5.273438 40.464844 4.238281 39.648438 3.421875 38.683594 C 2.605469 37.71875 2.234375 35.347656 1.714844 35.273438 C 1.492188 35.273438 1.195312 36.089844 0.972656 36.015625 C 0.382812 35.792969 0.679688 28.15625 0.972656 25.5625 C 1.121094 24.078125 1.34375 23.117188 1.863281 22.003906 C 2.457031 20.964844 3.347656 20.003906 4.382812 19.335938 C 5.347656 18.667969 6.535156 18.074219 7.792969 18.074219 C 9.351562 18 11.722656 18.59375 13.058594 19.410156 C 14.171875 20.078125 14.910156 21.113281 15.503906 22.152344 C 16.023438 23.265625 16.171875 24.300781 16.320312 25.785156 C 16.46875 27.859375 16.394531 31.714844 15.726562 33.644531 C 15.355469 34.976562 14.910156 35.941406 13.949219 36.832031 C 12.835938 37.867188 10.6875 38.90625 9.203125 39.128906 C 7.941406 39.351562 6.683594 39.054688 5.644531 38.609375 C 4.53125 38.164062 3.421875 37.496094 2.679688 36.460938 C 1.789062 35.199219 0.972656 31.417969 0.972656 31.417969 " clip-rule="nonzero"/></clipPath><clipPath id="85a234335c"><rect x="0" width="48" y="0" height="42"/></clipPath><clipPath id="d4c2a34e20"><path d="M 23.820312 12.117188 L 53.429688 12.117188 L 53.429688 36.632812 L 23.820312 36.632812 Z M 23.820312 12.117188 " clip-rule="nonzero"/></clipPath><clipPath id="93e360a984"><path d="M 41.21875 35.070312 C 36.695312 32.253906 28.910156 30.84375 26.539062 29.140625 C 25.351562 28.175781 24.835938 27.136719 24.390625 25.953125 C 23.945312 24.839844 23.722656 23.507812 23.945312 22.246094 C 24.242188 20.613281 25.425781 18.390625 26.539062 17.277344 C 27.503906 16.316406 29.058594 15.648438 29.875 15.5 C 30.394531 15.425781 30.617188 15.871094 31.136719 15.722656 C 32.171875 15.5 33.953125 13.203125 35.210938 12.683594 C 36.101562 12.238281 36.769531 12.164062 37.734375 12.238281 C 39.140625 12.386719 41.441406 13.128906 42.550781 13.867188 C 43.441406 14.386719 43.886719 14.90625 44.332031 15.796875 C 44.996094 16.984375 45.664062 19.28125 45.738281 20.6875 C 45.738281 21.652344 45.589844 22.320312 45.144531 23.210938 C 44.554688 24.394531 43.21875 26.25 41.808594 27.0625 C 40.476562 27.878906 38.25 28.175781 36.84375 28.175781 C 35.878906 28.101562 35.210938 27.953125 34.398438 27.433594 C 33.136719 26.769531 31.433594 25.136719 30.691406 23.949219 C 30.171875 23.136719 30.023438 22.320312 29.875 21.503906 C 29.726562 20.6875 29.652344 19.875 29.875 18.910156 C 30.171875 17.574219 31.359375 15.425781 32.246094 14.386719 C 32.914062 13.71875 33.507812 13.277344 34.398438 12.980469 C 35.65625 12.535156 38.105469 12.238281 39.4375 12.460938 C 40.476562 12.535156 41.070312 12.832031 41.882812 13.425781 C 42.996094 14.164062 44.554688 15.796875 45.144531 17.277344 C 45.738281 18.761719 45.664062 21.058594 45.441406 22.394531 C 45.21875 23.359375 45.144531 23.875 44.332031 24.691406 C 42.476562 26.621094 34.175781 30.695312 31.800781 31.066406 C 30.914062 31.214844 30.617188 31.140625 29.875 30.84375 C 28.6875 30.398438 26.316406 29.140625 25.277344 27.65625 C 24.316406 26.25 23.722656 23.949219 23.945312 22.246094 C 24.167969 20.464844 25.277344 18.390625 26.539062 17.277344 C 27.875 16.09375 29.726562 15.5 31.800781 15.277344 C 34.546875 15.054688 38.992188 15.945312 41.808594 17.128906 C 44.332031 18.167969 46.40625 19.949219 48.257812 21.503906 C 49.964844 22.914062 51.816406 24.46875 52.632812 25.953125 C 53.226562 27.136719 53.375 28.324219 53.300781 29.511719 C 53.226562 30.695312 52.855469 31.957031 52.261719 32.921875 C 51.667969 33.957031 50.707031 34.921875 49.742188 35.515625 C 48.703125 36.109375 47.519531 36.628906 46.332031 36.628906 C 44.777344 36.628906 41.21875 35.070312 41.21875 35.070312 " clip-rule="nonzero"/></clipPath><clipPath id="ab969996b2"><path d="M 0.820312 0.117188 L 30.375 0.117188 L 30.375 24.632812 L 0.820312 24.632812 Z M 0.820312 0.117188 " clip-rule="nonzero"/></clipPath><clipPath id="94d89e523d"><path d="M 18.21875 23.070312 C 13.695312 20.253906 5.910156 18.84375 3.539062 17.140625 C 2.351562 16.175781 1.835938 15.136719 1.390625 13.953125 C 0.945312 12.839844 0.722656 11.507812 0.945312 10.246094 C 1.242188 8.613281 2.425781 6.390625 3.539062 5.277344 C 4.503906 4.316406 6.058594 3.648438 6.875 3.5 C 7.394531 3.425781 7.617188 3.871094 8.136719 3.722656 C 9.171875 3.5 10.953125 1.203125 12.210938 0.683594 C 13.101562 0.238281 13.769531 0.164062 14.734375 0.238281 C 16.140625 0.386719 18.441406 1.128906 19.550781 1.867188 C 20.441406 2.386719 20.886719 2.90625 21.332031 3.796875 C 21.996094 4.984375 22.664062 7.28125 22.738281 8.6875 C 22.738281 9.652344 22.589844 10.320312 22.144531 11.210938 C 21.554688 12.394531 20.21875 14.25 18.808594 15.0625 C 17.476562 15.878906 15.25 16.175781 13.84375 16.175781 C 12.878906 16.101562 12.210938 15.953125 11.398438 15.433594 C 10.136719 14.769531 8.433594 13.136719 7.691406 11.949219 C 7.171875 11.136719 7.023438 10.320312 6.875 9.503906 C 6.726562 8.6875 6.652344 7.875 6.875 6.910156 C 7.171875 5.574219 8.359375 3.425781 9.246094 2.386719 C 9.914062 1.71875 10.507812 1.277344 11.398438 0.980469 C 12.65625 0.535156 15.105469 0.238281 16.4375 0.460938 C 17.476562 0.535156 18.070312 0.832031 18.882812 1.425781 C 19.996094 2.164062 21.554688 3.796875 22.144531 5.277344 C 22.738281 6.761719 22.664062 9.058594 22.441406 10.394531 C 22.21875 11.359375 22.144531 11.875 21.332031 12.691406 C 19.476562 14.621094 11.175781 18.695312 8.800781 19.066406 C 7.914062 19.214844 7.617188 19.140625 6.875 18.84375 C 5.6875 18.398438 3.316406 17.140625 2.277344 15.65625 C 1.316406 14.25 0.722656 11.949219 0.945312 10.246094 C 1.167969 8.464844 2.277344 6.390625 3.539062 5.277344 C 4.875 4.09375 6.726562 3.5 8.800781 3.277344 C 11.546875 3.054688 15.992188 3.945312 18.808594 5.128906 C 21.332031 6.167969 23.40625 7.949219 25.257812 9.503906 C 26.964844 10.914062 28.816406 12.46875 29.632812 13.953125 C 30.226562 15.136719 30.375 16.324219 30.300781 17.511719 C 30.226562 18.695312 29.855469 19.957031 29.261719 20.921875 C 28.667969 21.957031 27.707031 22.921875 26.742188 23.515625 C 25.703125 24.109375 24.519531 24.628906 23.332031 24.628906 C 21.777344 24.628906 18.21875 23.070312 18.21875 23.070312 " clip-rule="nonzero"/></clipPath><clipPath id="6255e25f77"><rect x="0" width="31" y="0" height="25"/></clipPath></defs><path fill="#0b0c10" d="M 16.988281 60.238281 L 28.570312 60.238281 L 28.570312 40.933594 L 45.558594 40.933594 L 45.558594 60.238281 L 57.144531 60.238281 L 57.144531 30.121094 L 37.066406 15.0625 L 16.988281 30.121094 Z M 12.355469 64.871094 L 12.355469 27.804688 L 37.066406 9.273438 L 61.777344 27.804688 L 61.777344 64.871094 L 40.925781 64.871094 L 40.925781 45.566406 L 33.203125 45.566406 L 33.203125 64.871094 Z M 37.066406 37.613281 Z M 37.066406 37.613281 " fill-opacity="1" fill-rule="nonzero"/><g clip-path="url(#2eb70dfca8)"><g clip-path="url(#a5323b1efa)"><g transform="matrix(1, 0, 0, 1, 14, 23)"><g clip-path="url(#85a234335c)"><g clip-path="url(#3418055cd5)"><g clip-path="url(#141710a443)"><rect x="-30.526399" width="108.172793" fill="#0b0c10" height="119.5776" y="-41.2688" fill-opacity="1"/></g></g></g></g></g></g><g clip-path="url(#d4c2a34e20)"><g clip-path="url(#93e360a984)"><g transform="matrix(1, 0, 0, 1, 23, 12)"><g clip-path="url(#6255e25f77)"><g clip-path="url(#ab969996b2)"><g clip-path="url(#94d89e523d)"><rect x="-39.526399" width="108.172793" fill="#0b0c10" height="119.5776" y="-30.2688" fill-opacity="1"/></g></g></g></g></g></g></svg>