<svg xmlns="http://www.w3.org/2000/svg" xmlns:xlink="http://www.w3.org/1999/xlink" width="800" zoomAndPan="magnify" viewBox="0 0 600 599.999999" height="800" preserveAspectRatio="xMidYMid meet" version="1.0"><defs><clipPath id="ec5bfb64af"><path d="M 1 0.121094 L 510.75 0.121094 L 510.75 597 L 1 597 Z M 1 0.121094 " clip-rule="nonzero"/></clipPath><clipPath id="555184a208"><rect x="0" width="511" y="0" height="597"/></clipPath></defs><g transform="matrix(1, 0, 0, 1, 45, 3)"><g clip-path="url(#555184a208)"><g clip-path="url(#ec5bfb64af)"><path fill="#000000" d="M 105.28125 0.761719 L 428.824219 0.722656 C 454.320312 0.695312 475.53125 -2.976562 495.289062 16.746094 C 508.558594 29.992188 510.523438 44.527344 510.582031 62.449219 L 510.578125 529.859375 C 510.574219 537.742188 510.820312 545.859375 509.6875 553.675781 C 506.78125 573.6875 488.40625 591.433594 468.785156 595.058594 C 458.476562 596.964844 447.417969 596.234375 436.96875 596.230469 L 231.871094 596.214844 L 101.113281 596.265625 C 82.148438 596.332031 68.6875 595.914062 53.851562 581.886719 C 32.390625 561.597656 37.308594 535.222656 36.613281 508.78125 C 26.925781 508.023438 15.816406 510.609375 7.933594 503.386719 C 0.511719 496.582031 -0.34375 483.414062 6.980469 476.199219 C 14.132812 469.148438 27.585938 470.644531 36.722656 470.667969 C 37.515625 457.722656 37.019531 444.027344 36.40625 431.097656 C 26.488281 430.898438 15.101562 433.222656 7.136719 425.671875 C -0.136719 418.773438 -0.0117188 406.632812 6.953125 399.546875 C 14.199219 392.175781 27.746094 393.894531 37.308594 393.773438 C 37.222656 381.128906 37.128906 368.238281 36.574219 355.617188 C 26.84375 355.414062 15.25 357.171875 7.425781 350.035156 C -0.0859375 343.183594 -0.429688 331.414062 6.574219 324.007812 C 13.355469 316.84375 27.527344 318.886719 36.722656 318.503906 C 37.140625 306.203125 36.789062 293.777344 36.832031 281.457031 C 27.113281 280.660156 15.757812 282.886719 7.847656 275.785156 C 0.140625 268.867188 -0.824219 256.457031 6.488281 248.890625 C 13.875 241.253906 26.910156 243.042969 36.644531 242.832031 C 36.976562 230.226562 37.023438 217.484375 36.472656 204.890625 C 26.949219 204.328125 15.167969 206.8125 7.34375 199.953125 C -0.394531 193.175781 -0.441406 180.546875 6.652344 173.296875 C 13.964844 165.832031 27.296875 167.488281 36.921875 167.367188 C 36.527344 154.410156 37.261719 141.382812 36.449219 128.449219 C 27.238281 128.4375 14.796875 130.457031 7.554688 123.675781 C -0.15625 116.453125 0.113281 103.824219 7.5625 96.515625 C 14.707031 89.507812 27.40625 91.359375 36.632812 91.433594 C 37.523438 64.484375 31.214844 37.089844 52.335938 16.015625 C 68.027344 0.355469 84.699219 0.660156 105.28125 0.761719 Z M 105.28125 0.761719 " fill-opacity="1" fill-rule="nonzero"/></g><path fill="#eeeeee" d="M 88.21875 39.308594 C 101.355469 38.226562 117.292969 38.941406 130.492188 39.324219 L 130.414062 558.320312 C 119.273438 557.410156 108.207031 558.117188 97.070312 558.359375 C 75.097656 558.835938 76.117188 546.289062 76.21875 529.078125 C 76.257812 522.261719 76.09375 515.457031 76.070312 508.644531 C 118.609375 509.949219 111.773438 471.488281 86.117188 470.339844 L 75.964844 470.335938 C 76 457.382812 75.816406 444.089844 76.597656 431.167969 L 84.78125 431.347656 C 105.78125 431.625 112.066406 409.289062 99.605469 398.171875 C 92.953125 392.238281 84.3125 393.003906 76.089844 393.492188 C 76.566406 380.839844 75.898438 368.160156 76.511719 355.507812 C 84.5625 355.855469 92.992188 357.234375 99.472656 351.210938 C 107.050781 344.15625 107.875 330.644531 100.457031 323.171875 C 93.847656 316.507812 84.046875 317.636719 75.480469 317.667969 C 76.203125 305.429688 76.285156 293.316406 76.292969 281.054688 L 78.488281 281.128906 C 101.992188 281.832031 115.859375 263.355469 100.117188 248.039062 C 93.40625 241.511719 85.039062 242.515625 76.5 242.757812 C 75.964844 230.109375 76.257812 217.375 76.300781 204.71875 L 81.796875 204.878906 C 105.867188 205.496094 113.703125 184.355469 100.003906 171.65625 C 93.6875 165.800781 84.082031 167.40625 76.179688 167.585938 L 76.308594 128.421875 C 84.285156 128.535156 93.355469 130.34375 99.613281 124.070312 C 107.230469 116.4375 107.707031 103.277344 99.691406 95.777344 C 92.960938 89.476562 83.386719 90.253906 74.875 90.660156 C 75.347656 74.273438 68.535156 43.828125 88.21875 39.308594 Z M 88.21875 39.308594 " fill-opacity="1" fill-rule="nonzero"/><path fill="#00a5ff" d="M 443.015625 38.996094 C 465.695312 38.609375 471.289062 41.296875 471.402344 65.089844 L 471.40625 518.375 C 471.414062 562.632812 468.488281 557.960938 430.230469 557.925781 L 198.398438 557.894531 C 188.671875 557.921875 178.890625 558.183594 169.1875 557.484375 L 169.195312 39.183594 L 363.105469 39.152344 C 389.71875 39.152344 416.414062 39.578125 443.015625 38.996094 Z M 443.015625 38.996094 " fill-opacity="1" fill-rule="nonzero"/><path stroke-linecap="butt" transform="matrix(1.875, 0.000000000000001018, -0.000000000000001018, 1.875, 254.999988, 125.455503)" fill="none" stroke-linejoin="miter" d="M 0.00000666667 5.000816 L 104.662511 5.000816 " stroke="#000000" stroke-width="10" stroke-opacity="1" stroke-miterlimit="4"/><path stroke-linecap="butt" transform="matrix(1.875, 0, 0, 1.875, 231.034294, 226.705498)" fill="none" stroke-linejoin="miter" d="M 0.000459801 5.000818 L 117.444215 5.000818 " stroke="#000000" stroke-width="10" stroke-opacity="1" stroke-miterlimit="4"/><path stroke-linecap="butt" transform="matrix(1.875, 0, 0, 1.875, 231.034294, 327.955465)" fill="none" stroke-linejoin="miter" d="M 0.000459801 5.000836 L 117.444215 5.000836 " stroke="#000000" stroke-width="10" stroke-opacity="1" stroke-miterlimit="4"/><path stroke-linecap="butt" transform="matrix(1.875, 0, 0, 1.875, 231.034294, 428.489042)" fill="none" stroke-linejoin="miter" d="M 0.000459801 4.999595 L 117.444215 4.999595 " stroke="#000000" stroke-width="10" stroke-opacity="1" stroke-miterlimit="4"/></g></g></svg>