<svg xmlns="http://www.w3.org/2000/svg" xmlns:xlink="http://www.w3.org/1999/xlink" width="100" zoomAndPan="magnify" viewBox="0 0 75.119995 83.04" height="100" preserveAspectRatio="xMidYMid meet" version="1.0"><defs><clipPath id="6a4be32e93"><path d="M 15.023438 7.722656 L 61.464844 7.722656 L 61.464844 51.105469 L 15.023438 51.105469 Z M 15.023438 7.722656 " clip-rule="nonzero"/></clipPath><clipPath id="a8bd8b1ac0"><path d="M 15.121094 41.148438 C 15.34375 35.144531 15.269531 31.734375 15.269531 28.992188 C 15.269531 26.398438 14.828125 23.800781 15.195312 21.355469 C 15.640625 18.910156 16.234375 16.242188 17.71875 14.238281 C 19.273438 12.238281 21.941406 10.605469 24.390625 9.644531 C 26.761719 8.679688 29.578125 8.679688 32.171875 8.457031 C 34.695312 8.234375 37.140625 8.308594 39.734375 8.234375 C 42.402344 8.160156 45.070312 7.566406 47.964844 8.011719 C 51.300781 8.53125 56.636719 9.273438 58.488281 11.570312 C 60.121094 13.648438 59.007812 17.574219 59.230469 20.464844 C 59.527344 23.136719 59.75 25.507812 60.046875 28.101562 C 60.417969 30.84375 61.453125 33.808594 61.308594 36.554688 C 61.160156 39.296875 60.640625 42.484375 59.230469 44.707031 C 57.824219 46.859375 55.300781 48.859375 52.929688 49.824219 C 50.707031 50.785156 47.964844 50.414062 45.367188 50.5625 C 42.550781 50.785156 39.585938 51.230469 36.769531 50.933594 C 33.878906 50.636719 29.429688 49.824219 28.171875 48.859375 C 27.652344 48.414062 27.726562 47.449219 27.429688 47.375 C 27.132812 47.375 26.910156 47.894531 26.539062 48.117188 C 26.019531 48.339844 25.425781 48.636719 24.835938 48.859375 C 24.242188 49.007812 23.648438 49.15625 23.054688 49.15625 C 22.460938 49.15625 21.867188 49.15625 21.277344 49.007812 C 20.683594 48.933594 20.089844 48.710938 19.496094 48.488281 C 18.976562 48.265625 18.457031 47.894531 17.941406 47.523438 C 17.496094 47.152344 17.050781 46.710938 16.679688 46.265625 C 16.308594 45.746094 16.011719 45.226562 15.789062 44.707031 C 15.492188 44.113281 15.34375 43.523438 15.195312 42.929688 C 15.121094 42.335938 15.121094 41.148438 15.121094 41.148438 " clip-rule="nonzero"/></clipPath><clipPath id="cd1400736e"><path d="M 0.0234375 0.722656 L 46.464844 0.722656 L 46.464844 44.105469 L 0.0234375 44.105469 Z M 0.0234375 0.722656 " clip-rule="nonzero"/></clipPath><clipPath id="555fc8e1f3"><path d="M 0.121094 34.148438 C 0.34375 28.144531 0.269531 24.734375 0.269531 21.992188 C 0.269531 19.398438 -0.171875 16.800781 0.195312 14.355469 C 0.640625 11.910156 1.234375 9.242188 2.71875 7.238281 C 4.273438 5.238281 6.941406 3.605469 9.390625 2.644531 C 11.761719 1.679688 14.578125 1.679688 17.171875 1.457031 C 19.695312 1.234375 22.140625 1.308594 24.734375 1.234375 C 27.402344 1.160156 30.070312 0.566406 32.964844 1.011719 C 36.300781 1.53125 41.636719 2.273438 43.488281 4.570312 C 45.121094 6.648438 44.007812 10.574219 44.230469 13.464844 C 44.527344 16.136719 44.75 18.507812 45.046875 21.101562 C 45.417969 23.84375 46.453125 26.808594 46.308594 29.554688 C 46.160156 32.296875 45.640625 35.484375 44.230469 37.707031 C 42.824219 39.859375 40.300781 41.859375 37.929688 42.824219 C 35.707031 43.785156 32.964844 43.414062 30.367188 43.5625 C 27.550781 43.785156 24.585938 44.230469 21.769531 43.933594 C 18.878906 43.636719 14.429688 42.824219 13.171875 41.859375 C 12.652344 41.414062 12.726562 40.449219 12.429688 40.375 C 12.132812 40.375 11.910156 40.894531 11.539062 41.117188 C 11.019531 41.339844 10.425781 41.636719 9.835938 41.859375 C 9.242188 42.007812 8.648438 42.15625 8.054688 42.15625 C 7.460938 42.15625 6.867188 42.15625 6.277344 42.007812 C 5.683594 41.933594 5.089844 41.710938 4.496094 41.488281 C 3.976562 41.265625 3.457031 40.894531 2.941406 40.523438 C 2.496094 40.152344 2.050781 39.710938 1.679688 39.265625 C 1.308594 38.746094 1.011719 38.226562 0.789062 37.707031 C 0.492188 37.113281 0.34375 36.523438 0.195312 35.929688 C 0.121094 35.335938 0.121094 34.148438 0.121094 34.148438 " clip-rule="nonzero"/></clipPath><clipPath id="d10ee2dd25"><rect x="0" width="47" y="0" height="45"/></clipPath><clipPath id="b010a37758"><path d="M 45.238281 34.785156 L 59.78125 34.785156 L 59.78125 49.652344 L 45.238281 49.652344 Z M 45.238281 34.785156 " clip-rule="nonzero"/></clipPath><clipPath id="55c1440f4f"><path d="M 59.75 39.964844 C 59.75 44.632812 59.230469 45.894531 58.488281 46.785156 C 57.824219 47.671875 56.785156 48.488281 55.746094 48.933594 C 54.710938 49.453125 53.375 49.675781 52.261719 49.601562 C 51.078125 49.527344 49.816406 49.15625 48.851562 48.5625 C 47.890625 47.96875 46.925781 47.003906 46.332031 46.042969 C 45.738281 45.078125 45.367188 43.816406 45.292969 42.632812 C 45.21875 41.519531 45.441406 40.1875 45.960938 39.148438 C 46.40625 38.109375 47.222656 37.070312 48.113281 36.332031 C 49 35.664062 50.261719 35.144531 51.375 34.921875 C 52.484375 34.699219 53.820312 34.773438 54.929688 35.144531 C 55.96875 35.441406 57.898438 36.996094 57.898438 36.996094 " clip-rule="nonzero"/></clipPath><clipPath id="d1fc3f1b50"><path d="M 0.238281 0.785156 L 14.78125 0.785156 L 14.78125 15.652344 L 0.238281 15.652344 Z M 0.238281 0.785156 " clip-rule="nonzero"/></clipPath><clipPath id="65204c38c0"><path d="M 14.75 5.964844 C 14.75 10.632812 14.230469 11.894531 13.488281 12.785156 C 12.824219 13.671875 11.785156 14.488281 10.746094 14.933594 C 9.710938 15.453125 8.375 15.675781 7.261719 15.601562 C 6.078125 15.527344 4.816406 15.15625 3.851562 14.5625 C 2.890625 13.96875 1.925781 13.003906 1.332031 12.042969 C 0.738281 11.078125 0.367188 9.816406 0.292969 8.632812 C 0.21875 7.519531 0.441406 6.1875 0.960938 5.148438 C 1.40625 4.109375 2.222656 3.070312 3.113281 2.332031 C 4 1.664062 5.261719 1.144531 6.375 0.921875 C 7.484375 0.699219 8.820312 0.773438 9.929688 1.144531 C 10.96875 1.441406 12.898438 2.996094 12.898438 2.996094 " clip-rule="nonzero"/></clipPath><clipPath id="962adbb0a2"><rect x="0" width="15" y="0" height="16"/></clipPath><clipPath id="4f37bef7ef"><path d="M 14.324219 35.601562 L 28.949219 35.601562 L 28.949219 50.464844 L 14.324219 50.464844 Z M 14.324219 35.601562 " clip-rule="nonzero"/></clipPath><clipPath id="cedb12caa7"><path d="M 28.910156 40.851562 C 28.910156 45.523438 28.316406 46.710938 27.652344 47.597656 C 26.910156 48.488281 25.871094 49.304688 24.835938 49.824219 C 23.796875 50.265625 22.460938 50.488281 21.351562 50.414062 C 20.238281 50.339844 18.976562 49.972656 17.941406 49.378906 C 16.976562 48.785156 16.011719 47.894531 15.417969 46.859375 C 14.828125 45.894531 14.457031 44.632812 14.382812 43.523438 C 14.308594 42.335938 14.53125 41.074219 15.046875 40.039062 C 15.492188 38.925781 16.308594 37.886719 17.199219 37.21875 C 18.164062 36.480469 19.347656 35.960938 20.460938 35.738281 C 21.574219 35.515625 22.90625 35.664062 24.019531 35.960938 C 25.128906 36.332031 27.058594 37.8125 27.058594 37.8125 " clip-rule="nonzero"/></clipPath><clipPath id="2da35fefce"><path d="M 0.324219 0.601562 L 14.941406 0.601562 L 14.941406 15.464844 L 0.324219 15.464844 Z M 0.324219 0.601562 " clip-rule="nonzero"/></clipPath><clipPath id="a7c3ed9536"><path d="M 14.910156 5.851562 C 14.910156 10.523438 14.316406 11.710938 13.652344 12.597656 C 12.910156 13.488281 11.871094 14.304688 10.835938 14.824219 C 9.796875 15.265625 8.460938 15.488281 7.351562 15.414062 C 6.238281 15.339844 4.976562 14.972656 3.941406 14.378906 C 2.976562 13.785156 2.011719 12.894531 1.417969 11.859375 C 0.828125 10.894531 0.457031 9.632812 0.382812 8.523438 C 0.308594 7.335938 0.53125 6.074219 1.046875 5.039062 C 1.492188 3.925781 2.308594 2.886719 3.199219 2.21875 C 4.164062 1.480469 5.347656 0.960938 6.460938 0.738281 C 7.574219 0.515625 8.90625 0.664062 10.019531 0.960938 C 11.128906 1.332031 13.058594 2.8125 13.058594 2.8125 " clip-rule="nonzero"/></clipPath><clipPath id="b8e927afe3"><rect x="0" width="15" y="0" height="16"/></clipPath><clipPath id="27e588ea33"><path d="M 16.179688 8.839844 L 30.71875 8.839844 L 30.71875 23.703125 L 16.179688 23.703125 Z M 16.179688 8.839844 " clip-rule="nonzero"/></clipPath><clipPath id="3efbfdd1bf"><path d="M 30.691406 14.015625 C 30.691406 18.6875 30.171875 19.949219 29.429688 20.835938 C 28.761719 21.726562 27.726562 22.542969 26.6875 22.988281 C 25.648438 23.507812 24.316406 23.726562 23.203125 23.652344 C 22.015625 23.582031 20.757812 23.210938 19.792969 22.617188 C 18.828125 22.023438 17.867188 21.058594 17.273438 20.097656 C 16.679688 19.132812 16.308594 17.871094 16.234375 16.6875 C 16.160156 15.574219 16.382812 14.238281 16.902344 13.203125 C 17.347656 12.164062 18.164062 11.125 19.050781 10.382812 C 19.941406 9.71875 21.203125 9.199219 22.3125 8.976562 C 23.425781 8.753906 24.761719 8.828125 25.871094 9.199219 C 26.910156 9.496094 28.835938 10.976562 28.835938 10.976562 " clip-rule="nonzero"/></clipPath><clipPath id="9887d3d43e"><path d="M 0.179688 0.839844 L 14.71875 0.839844 L 14.71875 15.703125 L 0.179688 15.703125 Z M 0.179688 0.839844 " clip-rule="nonzero"/></clipPath><clipPath id="5d7d354773"><path d="M 14.691406 6.015625 C 14.691406 10.6875 14.171875 11.949219 13.429688 12.835938 C 12.761719 13.726562 11.726562 14.542969 10.6875 14.988281 C 9.648438 15.507812 8.316406 15.726562 7.203125 15.652344 C 6.015625 15.582031 4.757812 15.210938 3.792969 14.617188 C 2.828125 14.023438 1.867188 13.058594 1.273438 12.097656 C 0.679688 11.132812 0.308594 9.871094 0.234375 8.6875 C 0.160156 7.574219 0.382812 6.238281 0.902344 5.203125 C 1.347656 4.164062 2.164062 3.125 3.050781 2.382812 C 3.941406 1.71875 5.203125 1.199219 6.3125 0.976562 C 7.425781 0.753906 8.761719 0.828125 9.871094 1.199219 C 10.910156 1.496094 12.835938 2.976562 12.835938 2.976562 " clip-rule="nonzero"/></clipPath><clipPath id="3707bdbb8b"><rect x="0" width="15" y="0" height="16"/></clipPath><clipPath id="4d9f33ac66"><path d="M 15.773438 45.292969 L 21.777344 45.292969 L 21.777344 50.242188 L 15.773438 50.242188 Z M 15.773438 45.292969 " clip-rule="nonzero"/></clipPath><clipPath id="fdb6a724bb"><path d="M 17.421875 45.820312 C 20.3125 45.449219 21.203125 45.820312 21.5 46.414062 C 21.792969 47.078125 21.644531 48.5625 21.128906 49.082031 C 20.757812 49.601562 19.792969 49.898438 19.199219 49.75 C 18.53125 49.675781 17.792969 49.082031 17.496094 48.488281 C 17.273438 47.894531 17.273438 46.929688 17.644531 46.414062 C 17.941406 45.894531 18.828125 45.375 19.421875 45.300781 C 20.015625 45.300781 20.980469 45.746094 21.351562 46.191406 C 21.71875 46.710938 21.867188 47.671875 21.644531 48.265625 C 21.5 48.859375 20.757812 49.378906 20.164062 49.75 C 19.421875 50.121094 18.238281 50.339844 17.496094 50.195312 C 16.976562 50.046875 16.457031 49.75 16.160156 49.304688 C 15.863281 48.785156 15.714844 47.820312 15.863281 47.226562 C 16.085938 46.636719 17.421875 45.820312 17.421875 45.820312 " clip-rule="nonzero"/></clipPath><clipPath id="f82ba287a1"><path d="M 0.773438 0.292969 L 6.777344 0.292969 L 6.777344 5.242188 L 0.773438 5.242188 Z M 0.773438 0.292969 " clip-rule="nonzero"/></clipPath><clipPath id="27756e0d11"><path d="M 2.421875 0.820312 C 5.3125 0.449219 6.203125 0.820312 6.5 1.414062 C 6.792969 2.078125 6.644531 3.5625 6.128906 4.082031 C 5.757812 4.601562 4.792969 4.898438 4.199219 4.75 C 3.53125 4.675781 2.792969 4.082031 2.496094 3.488281 C 2.273438 2.894531 2.273438 1.929688 2.644531 1.414062 C 2.941406 0.894531 3.828125 0.375 4.421875 0.300781 C 5.015625 0.300781 5.980469 0.746094 6.351562 1.191406 C 6.71875 1.710938 6.867188 2.671875 6.644531 3.265625 C 6.5 3.859375 5.757812 4.378906 5.164062 4.75 C 4.421875 5.121094 3.238281 5.339844 2.496094 5.195312 C 1.976562 5.046875 1.457031 4.75 1.160156 4.304688 C 0.863281 3.785156 0.714844 2.820312 0.863281 2.226562 C 1.085938 1.636719 2.421875 0.820312 2.421875 0.820312 " clip-rule="nonzero"/></clipPath><clipPath id="527f1d2032"><rect x="0" width="7" y="0" height="6"/></clipPath></defs><path fill="#0b0c10" d="M 22.394531 67.960938 C 19.621094 67.960938 17.253906 66.980469 15.296875 65.019531 C 13.335938 63.0625 12.355469 60.695312 12.355469 57.921875 L 12.355469 16.222656 C 12.355469 13.449219 13.335938 11.082031 15.296875 9.125 C 17.253906 7.164062 19.621094 6.183594 22.394531 6.183594 L 61.777344 6.183594 L 61.777344 52.515625 C 60.4375 52.515625 59.332031 53.058594 58.457031 54.136719 C 57.582031 55.21875 57.144531 56.480469 57.144531 57.921875 C 57.144531 59.363281 57.582031 60.625 58.457031 61.707031 C 59.332031 62.785156 60.4375 63.328125 61.777344 63.328125 L 61.777344 67.960938 Z M 16.988281 49.425781 C 17.761719 48.914062 18.597656 48.527344 19.5 48.269531 C 20.398438 48.011719 21.363281 47.882812 22.394531 47.882812 L 24.710938 47.882812 L 24.710938 10.816406 L 22.394531 10.816406 C 20.890625 10.816406 19.617188 11.34375 18.566406 12.394531 C 17.515625 13.445312 16.988281 14.722656 16.988281 16.222656 Z M 29.34375 47.882812 L 57.144531 47.882812 L 57.144531 10.816406 L 29.34375 10.816406 Z M 16.988281 49.425781 L 16.988281 10.816406 Z M 22.359375 63.328125 L 53.976562 63.328125 C 53.515625 62.554688 53.152344 61.707031 52.894531 60.777344 C 52.636719 59.851562 52.511719 58.898438 52.511719 57.921875 C 52.511719 56.890625 52.636719 55.925781 52.894531 55.027344 C 53.152344 54.125 53.539062 53.289062 54.054688 52.515625 L 22.363281 52.515625 C 20.890625 52.515625 19.625 53.042969 18.570312 54.09375 C 17.515625 55.144531 16.988281 56.421875 16.988281 57.921875 C 16.988281 59.414062 17.515625 60.6875 18.570312 61.742188 C 19.625 62.800781 20.890625 63.328125 22.359375 63.328125 Z M 22.359375 63.328125 " fill-opacity="1" fill-rule="nonzero"/><g clip-path="url(#6a4be32e93)"><g clip-path="url(#a8bd8b1ac0)"><g transform="matrix(1, 0, 0, 1, 15, 7)"><g clip-path="url(#d10ee2dd25)"><g clip-path="url(#cd1400736e)"><g clip-path="url(#555fc8e1f3)"><rect x="-31.526399" width="108.172793" fill="#0b0c10" height="119.5776" y="-25.2688" fill-opacity="1"/></g></g></g></g></g></g><g clip-path="url(#b010a37758)"><g clip-path="url(#55c1440f4f)"><g transform="matrix(1, 0, 0, 1, 45, 34)"><g clip-path="url(#962adbb0a2)"><g clip-path="url(#d1fc3f1b50)"><g clip-path="url(#65204c38c0)"><rect x="-61.526399" width="108.172793" fill="#0b0c10" height="119.5776" y="-52.2688" fill-opacity="1"/></g></g></g></g></g></g><g clip-path="url(#4f37bef7ef)"><g clip-path="url(#cedb12caa7)"><g transform="matrix(1, 0, 0, 1, 14, 35)"><g clip-path="url(#b8e927afe3)"><g clip-path="url(#2da35fefce)"><g clip-path="url(#a7c3ed9536)"><rect x="-30.526399" width="108.172793" fill="#0b0c10" height="119.5776" y="-53.2688" fill-opacity="1"/></g></g></g></g></g></g><g clip-path="url(#27e588ea33)"><g clip-path="url(#3efbfdd1bf)"><g transform="matrix(1, 0, 0, 1, 16, 8)"><g clip-path="url(#3707bdbb8b)"><g clip-path="url(#9887d3d43e)"><g clip-path="url(#5d7d354773)"><rect x="-32.526399" width="108.172793" fill="#0b0c10" height="119.5776" y="-26.2688" fill-opacity="1"/></g></g></g></g></g></g><g clip-path="url(#4d9f33ac66)"><g clip-path="url(#fdb6a724bb)"><g transform="matrix(1, 0, 0, 1, 15, 45)"><g clip-path="url(#527f1d2032)"><g clip-path="url(#f82ba287a1)"><g clip-path="url(#27756e0d11)"><rect x="-31.526399" width="108.172793" fill="#0b0c10" height="119.5776" y="-63.2688" fill-opacity="1"/></g></g></g></g></g></g></svg>