<svg xmlns="http://www.w3.org/2000/svg" xmlns:xlink="http://www.w3.org/1999/xlink" width="100" zoomAndPan="magnify" viewBox="0 0 75.119995 83.04" height="100" preserveAspectRatio="xMidYMid meet" version="1.0"><defs><clipPath id="00d5f9026d"><path d="M 0 0.0078125 L 74.132812 0.0078125 L 74.132812 74.136719 L 0 74.136719 Z M 0 0.0078125 " clip-rule="nonzero"/></clipPath><clipPath id="b48bf93fc4"><path d="M 33.414062 0.0078125 L 40.71875 0.0078125 L 40.71875 74.136719 L 33.414062 74.136719 Z M 33.414062 0.0078125 " clip-rule="nonzero"/></clipPath><clipPath id="9a7a0b7f9d"><path d="M 37.066406 0.0078125 C 38.035156 0.0078125 38.964844 0.390625 39.648438 1.074219 C 40.332031 1.761719 40.71875 2.6875 40.71875 3.65625 L 40.71875 70.488281 C 40.71875 71.453125 40.332031 72.382812 39.648438 73.070312 C 38.964844 73.753906 38.035156 74.136719 37.066406 74.136719 C 36.097656 74.136719 35.167969 73.753906 34.484375 73.070312 C 33.800781 72.382812 33.414062 71.453125 33.414062 70.488281 L 33.414062 3.65625 C 33.414062 2.6875 33.800781 1.761719 34.484375 1.074219 C 35.167969 0.390625 36.097656 0.0078125 37.066406 0.0078125 Z M 37.066406 0.0078125 " clip-rule="nonzero"/></clipPath><clipPath id="bda40688ad"><path d="M 0.414062 0.0078125 L 7.71875 0.0078125 L 7.71875 74.136719 L 0.414062 74.136719 Z M 0.414062 0.0078125 " clip-rule="nonzero"/></clipPath><clipPath id="efc0ea9e21"><path d="M 4.066406 0.0078125 C 5.035156 0.0078125 5.964844 0.390625 6.648438 1.074219 C 7.332031 1.761719 7.71875 2.6875 7.71875 3.65625 L 7.71875 70.488281 C 7.71875 71.453125 7.332031 72.382812 6.648438 73.070312 C 5.964844 73.753906 5.035156 74.136719 4.066406 74.136719 C 3.097656 74.136719 2.167969 73.753906 1.484375 73.070312 C 0.800781 72.382812 0.414062 71.453125 0.414062 70.488281 L 0.414062 3.65625 C 0.414062 2.6875 0.800781 1.761719 1.484375 1.074219 C 2.167969 0.390625 3.097656 0.0078125 4.066406 0.0078125 Z M 4.066406 0.0078125 " clip-rule="nonzero"/></clipPath><clipPath id="8e7a09d4e8"><rect x="0" width="8" y="0" height="75"/></clipPath><clipPath id="8806553c91"><path d="M 0 33.421875 L 74.128906 33.421875 L 74.128906 40.726562 L 0 40.726562 Z M 0 33.421875 " clip-rule="nonzero"/></clipPath><clipPath id="ca7663886f"><path d="M 74.128906 37.074219 C 74.128906 38.042969 73.742188 38.972656 73.058594 39.65625 C 72.375 40.339844 71.445312 40.726562 70.476562 40.726562 L 3.648438 40.726562 C 2.679688 40.726562 1.75 40.339844 1.066406 39.65625 C 0.382812 38.972656 -0.00390625 38.042969 -0.00390625 37.074219 C -0.00390625 36.105469 0.382812 35.175781 1.066406 34.492188 C 1.75 33.808594 2.679688 33.421875 3.648438 33.421875 L 70.476562 33.421875 C 71.445312 33.421875 72.375 33.808594 73.058594 34.492188 C 73.742188 35.175781 74.128906 36.105469 74.128906 37.074219 Z M 74.128906 37.074219 " clip-rule="nonzero"/></clipPath><clipPath id="a804da926b"><path d="M 0 0.421875 L 74.128906 0.421875 L 74.128906 7.726562 L 0 7.726562 Z M 0 0.421875 " clip-rule="nonzero"/></clipPath><clipPath id="f99438154c"><path d="M 74.128906 4.074219 C 74.128906 5.042969 73.742188 5.972656 73.058594 6.65625 C 72.375 7.339844 71.445312 7.726562 70.476562 7.726562 L 3.648438 7.726562 C 2.679688 7.726562 1.75 7.339844 1.066406 6.65625 C 0.382812 5.972656 -0.00390625 5.042969 -0.00390625 4.074219 C -0.00390625 3.105469 0.382812 2.175781 1.066406 1.492188 C 1.75 0.808594 2.679688 0.421875 3.648438 0.421875 L 70.476562 0.421875 C 71.445312 0.421875 72.375 0.808594 73.058594 1.492188 C 73.742188 2.175781 74.128906 3.105469 74.128906 4.074219 Z M 74.128906 4.074219 " clip-rule="nonzero"/></clipPath><clipPath id="d67da4237c"><rect x="0" width="75" y="0" height="8"/></clipPath></defs><g clip-path="url(#00d5f9026d)"><path fill="#ffffff" d="M 0 0.0078125 L 74.132812 0.0078125 L 74.132812 74.136719 L 0 74.136719 Z M 0 0.0078125 " fill-opacity="1" fill-rule="nonzero"/><path fill="#ffffff" d="M 0 0.0078125 L 74.132812 0.0078125 L 74.132812 74.136719 L 0 74.136719 Z M 0 0.0078125 " fill-opacity="1" fill-rule="nonzero"/></g><g clip-path="url(#b48bf93fc4)"><g clip-path="url(#9a7a0b7f9d)"><g transform="matrix(1, 0, 0, 1, 33, -0.000000000000003574)"><g clip-path="url(#8e7a09d4e8)"><g clip-path="url(#bda40688ad)"><g clip-path="url(#efc0ea9e21)"><path fill="#eeeeee" d="M 0.414062 0.0078125 L 7.71875 0.0078125 L 7.71875 74.148438 L 0.414062 74.148438 Z M 0.414062 0.0078125 " fill-opacity="1" fill-rule="nonzero"/></g></g></g></g></g></g><g clip-path="url(#8806553c91)"><g clip-path="url(#ca7663886f)"><g transform="matrix(1, 0, 0, 1, 0, 33)"><g clip-path="url(#d67da4237c)"><g clip-path="url(#a804da926b)"><g clip-path="url(#f99438154c)"><path fill="#eeeeee" d="M 74.128906 0.421875 L 74.128906 7.726562 L -0.0117188 7.726562 L -0.0117188 0.421875 Z M 74.128906 0.421875 " fill-opacity="1" fill-rule="nonzero"/></g></g></g></g></g></g></svg>