<svg xmlns="http://www.w3.org/2000/svg" xmlns:xlink="http://www.w3.org/1999/xlink" width="100" zoomAndPan="magnify" viewBox="0 0 75.119995 83.04" height="100" preserveAspectRatio="xMidYMid meet" version="1.0"><defs><clipPath id="130fc5eaee"><path d="M 31.546875 7.417969 L 42.582031 7.417969 L 42.582031 66.730469 L 31.546875 66.730469 Z M 31.546875 7.417969 " clip-rule="nonzero"/></clipPath><clipPath id="6b846cfdd7"><path d="M 37.066406 7.417969 C 40.113281 7.417969 42.582031 9.890625 42.582031 12.9375 L 42.582031 61.207031 C 42.582031 64.253906 40.113281 66.726562 37.066406 66.726562 C 34.019531 66.726562 31.546875 64.253906 31.546875 61.207031 L 31.546875 12.9375 C 31.546875 9.890625 34.019531 7.417969 37.066406 7.417969 Z M 37.066406 7.417969 " clip-rule="nonzero"/></clipPath><clipPath id="599479bc5e"><path d="M 0.546875 0.417969 L 11.582031 0.417969 L 11.582031 59.730469 L 0.546875 59.730469 Z M 0.546875 0.417969 " clip-rule="nonzero"/></clipPath><clipPath id="b9c4b05f04"><path d="M 6.066406 0.417969 C 9.113281 0.417969 11.582031 2.890625 11.582031 5.9375 L 11.582031 54.207031 C 11.582031 57.253906 9.113281 59.726562 6.066406 59.726562 C 3.019531 59.726562 0.546875 57.253906 0.546875 54.207031 L 0.546875 5.9375 C 0.546875 2.890625 3.019531 0.417969 6.066406 0.417969 Z M 6.066406 0.417969 " clip-rule="nonzero"/></clipPath><clipPath id="2500b0125e"><rect x="0" width="12" y="0" height="60"/></clipPath><clipPath id="cdbe6b8190"><path d="M 7.402344 31.558594 L 66.714844 31.558594 L 66.714844 42.59375 L 7.402344 42.59375 Z M 7.402344 31.558594 " clip-rule="nonzero"/></clipPath><clipPath id="6ee0a666a9"><path d="M 66.714844 37.074219 C 66.714844 40.125 64.246094 42.59375 61.195312 42.59375 L 12.925781 42.59375 C 9.878906 42.59375 7.410156 40.125 7.410156 37.074219 C 7.410156 34.027344 9.878906 31.558594 12.925781 31.558594 L 61.195312 31.558594 C 64.246094 31.558594 66.714844 34.027344 66.714844 37.074219 Z M 66.714844 37.074219 " clip-rule="nonzero"/></clipPath><clipPath id="20bf3586a3"><path d="M 0.402344 0.558594 L 59.714844 0.558594 L 59.714844 11.59375 L 0.402344 11.59375 Z M 0.402344 0.558594 " clip-rule="nonzero"/></clipPath><clipPath id="90a7df9403"><path d="M 59.714844 6.074219 C 59.714844 9.125 57.246094 11.59375 54.195312 11.59375 L 5.925781 11.59375 C 2.878906 11.59375 0.410156 9.125 0.410156 6.074219 C 0.410156 3.027344 2.878906 0.558594 5.925781 0.558594 L 54.195312 0.558594 C 57.246094 0.558594 59.714844 3.027344 59.714844 6.074219 Z M 59.714844 6.074219 " clip-rule="nonzero"/></clipPath><clipPath id="3ed8f8a27c"><rect x="0" width="60" y="0" height="12"/></clipPath></defs><g clip-path="url(#130fc5eaee)"><g clip-path="url(#6b846cfdd7)"><g transform="matrix(1, 0, 0, 1, 31, 7)"><g clip-path="url(#2500b0125e)"><g clip-path="url(#599479bc5e)"><g clip-path="url(#b9c4b05f04)"><path fill="#eeeeee" d="M 0.546875 0.417969 L 11.582031 0.417969 L 11.582031 59.730469 L 0.546875 59.730469 Z M 0.546875 0.417969 " fill-opacity="1" fill-rule="nonzero"/></g></g></g></g></g></g><g clip-path="url(#cdbe6b8190)"><g clip-path="url(#6ee0a666a9)"><g transform="matrix(1, 0, 0, 1, 7, 31)"><g clip-path="url(#3ed8f8a27c)"><g clip-path="url(#20bf3586a3)"><g clip-path="url(#90a7df9403)"><path fill="#eeeeee" d="M 59.714844 0.558594 L 59.714844 11.59375 L 0.402344 11.59375 L 0.402344 0.558594 Z M 59.714844 0.558594 " fill-opacity="1" fill-rule="nonzero"/></g></g></g></g></g></g></svg>
