<svg xmlns="http://www.w3.org/2000/svg" xmlns:xlink="http://www.w3.org/1999/xlink" width="100" zoomAndPan="magnify" viewBox="0 0 75.119995 83.04" height="100" preserveAspectRatio="xMidYMid meet" version="1.0"><defs><clipPath id="e1023cdcb5"><path d="M 31.546875 7.417969 L 42.582031 7.417969 L 42.582031 66.730469 L 31.546875 66.730469 Z M 31.546875 7.417969 " clip-rule="nonzero"/></clipPath><clipPath id="c21c25c810"><path d="M 37.066406 7.417969 C 40.113281 7.417969 42.582031 9.890625 42.582031 12.9375 L 42.582031 61.207031 C 42.582031 64.253906 40.113281 66.726562 37.066406 66.726562 C 34.019531 66.726562 31.546875 64.253906 31.546875 61.207031 L 31.546875 12.9375 C 31.546875 9.890625 34.019531 7.417969 37.066406 7.417969 Z M 37.066406 7.417969 " clip-rule="nonzero"/></clipPath><clipPath id="af00f9ac7b"><path d="M 0.546875 0.417969 L 11.582031 0.417969 L 11.582031 59.730469 L 0.546875 59.730469 Z M 0.546875 0.417969 " clip-rule="nonzero"/></clipPath><clipPath id="907780e18d"><path d="M 6.066406 0.417969 C 9.113281 0.417969 11.582031 2.890625 11.582031 5.9375 L 11.582031 54.207031 C 11.582031 57.253906 9.113281 59.726562 6.066406 59.726562 C 3.019531 59.726562 0.546875 57.253906 0.546875 54.207031 L 0.546875 5.9375 C 0.546875 2.890625 3.019531 0.417969 6.066406 0.417969 Z M 6.066406 0.417969 " clip-rule="nonzero"/></clipPath><clipPath id="f0ab0cc897"><rect x="0" width="12" y="0" height="60"/></clipPath><clipPath id="15d9cf0174"><path d="M 7.402344 31.558594 L 66.714844 31.558594 L 66.714844 42.59375 L 7.402344 42.59375 Z M 7.402344 31.558594 " clip-rule="nonzero"/></clipPath><clipPath id="4a1271be7f"><path d="M 66.714844 37.074219 C 66.714844 40.125 64.246094 42.59375 61.195312 42.59375 L 12.925781 42.59375 C 9.878906 42.59375 7.410156 40.125 7.410156 37.074219 C 7.410156 34.027344 9.878906 31.558594 12.925781 31.558594 L 61.195312 31.558594 C 64.246094 31.558594 66.714844 34.027344 66.714844 37.074219 Z M 66.714844 37.074219 " clip-rule="nonzero"/></clipPath><clipPath id="3c4865d504"><path d="M 0.402344 0.558594 L 59.714844 0.558594 L 59.714844 11.59375 L 0.402344 11.59375 Z M 0.402344 0.558594 " clip-rule="nonzero"/></clipPath><clipPath id="de6254451e"><path d="M 59.714844 6.074219 C 59.714844 9.125 57.246094 11.59375 54.195312 11.59375 L 5.925781 11.59375 C 2.878906 11.59375 0.410156 9.125 0.410156 6.074219 C 0.410156 3.027344 2.878906 0.558594 5.925781 0.558594 L 54.195312 0.558594 C 57.246094 0.558594 59.714844 3.027344 59.714844 6.074219 Z M 59.714844 6.074219 " clip-rule="nonzero"/></clipPath><clipPath id="7536bea36b"><rect x="0" width="60" y="0" height="12"/></clipPath></defs><g clip-path="url(#e1023cdcb5)"><g clip-path="url(#c21c25c810)"><g transform="matrix(1, 0, 0, 1, 31, 7)"><g clip-path="url(#f0ab0cc897)"><g clip-path="url(#af00f9ac7b)"><g clip-path="url(#907780e18d)"><path fill="#0b0c10" d="M 0.546875 0.417969 L 11.582031 0.417969 L 11.582031 59.730469 L 0.546875 59.730469 Z M 0.546875 0.417969 " fill-opacity="1" fill-rule="nonzero"/></g></g></g></g></g></g><g clip-path="url(#15d9cf0174)"><g clip-path="url(#4a1271be7f)"><g transform="matrix(1, 0, 0, 1, 7, 31)"><g clip-path="url(#7536bea36b)"><g clip-path="url(#3c4865d504)"><g clip-path="url(#de6254451e)"><path fill="#0b0c10" d="M 59.714844 0.558594 L 59.714844 11.59375 L 0.402344 11.59375 L 0.402344 0.558594 Z M 59.714844 0.558594 " fill-opacity="1" fill-rule="nonzero"/></g></g></g></g></g></g></svg>