<svg xmlns="http://www.w3.org/2000/svg" xmlns:xlink="http://www.w3.org/1999/xlink" width="100" zoomAndPan="magnify" viewBox="0 0 75.119995 83.04" height="100" preserveAspectRatio="xMidYMid meet" version="1.0"><defs><clipPath id="b6b1756737"><path d="M 0 0.0078125 L 74.132812 0.0078125 L 74.132812 74.136719 L 0 74.136719 Z M 0 0.0078125 " clip-rule="nonzero"/></clipPath><clipPath id="5b0b5e2f2a"><path d="M 31.546875 0.0078125 L 42.582031 0.0078125 L 42.582031 74.136719 L 31.546875 74.136719 Z M 31.546875 0.0078125 " clip-rule="nonzero"/></clipPath><clipPath id="7bfd4cb261"><path d="M 37.066406 0.0078125 C 40.113281 0.0078125 42.582031 2.476562 42.582031 5.523438 L 42.582031 68.621094 C 42.582031 71.667969 40.113281 74.136719 37.066406 74.136719 C 34.019531 74.136719 31.546875 71.667969 31.546875 68.621094 L 31.546875 5.523438 C 31.546875 2.476562 34.019531 0.0078125 37.066406 0.0078125 Z M 37.066406 0.0078125 " clip-rule="nonzero"/></clipPath><clipPath id="9792090699"><path d="M 0.546875 0.0078125 L 11.582031 0.0078125 L 11.582031 74.136719 L 0.546875 74.136719 Z M 0.546875 0.0078125 " clip-rule="nonzero"/></clipPath><clipPath id="da6b51a670"><path d="M 6.066406 0.0078125 C 9.113281 0.0078125 11.582031 2.476562 11.582031 5.523438 L 11.582031 68.621094 C 11.582031 71.667969 9.113281 74.136719 6.066406 74.136719 C 3.019531 74.136719 0.546875 71.667969 0.546875 68.621094 L 0.546875 5.523438 C 0.546875 2.476562 3.019531 0.0078125 6.066406 0.0078125 Z M 6.066406 0.0078125 " clip-rule="nonzero"/></clipPath><clipPath id="0e5ad1a5e0"><rect x="0" width="12" y="0" height="75"/></clipPath><clipPath id="f6358c3aec"><path d="M 0 31.558594 L 74.128906 31.558594 L 74.128906 42.59375 L 0 42.59375 Z M 0 31.558594 " clip-rule="nonzero"/></clipPath><clipPath id="9139e23a11"><path d="M 74.128906 37.074219 C 74.128906 40.125 71.65625 42.59375 68.609375 42.59375 L 5.511719 42.59375 C 2.464844 42.59375 -0.00390625 40.125 -0.00390625 37.074219 C -0.00390625 34.027344 2.464844 31.558594 5.511719 31.558594 L 68.609375 31.558594 C 71.65625 31.558594 74.128906 34.027344 74.128906 37.074219 Z M 74.128906 37.074219 " clip-rule="nonzero"/></clipPath><clipPath id="f4707dafcd"><path d="M 0 0.558594 L 74.128906 0.558594 L 74.128906 11.59375 L 0 11.59375 Z M 0 0.558594 " clip-rule="nonzero"/></clipPath><clipPath id="7d987bd544"><path d="M 74.128906 6.074219 C 74.128906 9.125 71.65625 11.59375 68.609375 11.59375 L 5.511719 11.59375 C 2.464844 11.59375 -0.00390625 9.125 -0.00390625 6.074219 C -0.00390625 3.027344 2.464844 0.558594 5.511719 0.558594 L 68.609375 0.558594 C 71.65625 0.558594 74.128906 3.027344 74.128906 6.074219 Z M 74.128906 6.074219 " clip-rule="nonzero"/></clipPath><clipPath id="5fd84acbee"><rect x="0" width="75" y="0" height="12"/></clipPath></defs><g clip-path="url(#b6b1756737)"><path fill="#ffffff" d="M 0 0.0078125 L 74.132812 0.0078125 L 74.132812 74.136719 L 0 74.136719 Z M 0 0.0078125 " fill-opacity="1" fill-rule="nonzero"/><path fill="#ffffff" d="M 0 0.0078125 L 74.132812 0.0078125 L 74.132812 74.136719 L 0 74.136719 Z M 0 0.0078125 " fill-opacity="1" fill-rule="nonzero"/></g><g clip-path="url(#5b0b5e2f2a)"><g clip-path="url(#7bfd4cb261)"><g transform="matrix(1, 0, 0, 1, 31, -0.000000000000003574)"><g clip-path="url(#0e5ad1a5e0)"><g clip-path="url(#9792090699)"><g clip-path="url(#da6b51a670)"><path fill="#eeeeee" d="M 0.546875 0.0078125 L 11.582031 0.0078125 L 11.582031 74.148438 L 0.546875 74.148438 Z M 0.546875 0.0078125 " fill-opacity="1" fill-rule="nonzero"/></g></g></g></g></g></g><g clip-path="url(#f6358c3aec)"><g clip-path="url(#9139e23a11)"><g transform="matrix(1, 0, 0, 1, 0, 31)"><g clip-path="url(#5fd84acbee)"><g clip-path="url(#f4707dafcd)"><g clip-path="url(#7d987bd544)"><path fill="#eeeeee" d="M 74.128906 0.558594 L 74.128906 11.59375 L -0.0117188 11.59375 L -0.0117188 0.558594 Z M 74.128906 0.558594 " fill-opacity="1" fill-rule="nonzero"/></g></g></g></g></g></g></svg>