<svg xmlns="http://www.w3.org/2000/svg" xmlns:xlink="http://www.w3.org/1999/xlink" width="100" zoomAndPan="magnify" viewBox="0 0 75.119995 83.04" height="100" preserveAspectRatio="xMidYMid meet" version="1.0"><path fill="#0b0c10" d="M 49.421875 64.871094 C 47.722656 64.871094 46.269531 64.265625 45.058594 63.058594 C 43.847656 61.847656 43.242188 60.394531 43.242188 58.695312 L 43.242188 46.339844 C 43.242188 44.640625 43.847656 43.183594 45.058594 41.976562 C 46.269531 40.765625 47.722656 40.160156 49.421875 40.160156 L 61.777344 40.160156 C 63.476562 40.160156 64.929688 40.765625 66.140625 41.976562 C 67.347656 43.183594 67.953125 44.640625 67.953125 46.339844 L 67.953125 58.695312 C 67.953125 60.394531 67.347656 61.847656 66.140625 63.058594 C 64.929688 64.265625 63.476562 64.871094 61.777344 64.871094 Z M 47.875 60.238281 L 63.320312 60.238281 L 63.320312 44.792969 L 47.875 44.792969 Z M 6.175781 54.832031 L 6.175781 50.199219 L 33.976562 50.199219 L 33.976562 54.832031 Z M 49.421875 33.984375 C 47.722656 33.984375 46.269531 33.378906 45.058594 32.167969 C 43.847656 30.957031 43.242188 29.503906 43.242188 27.804688 L 43.242188 15.449219 C 43.242188 13.75 43.847656 12.296875 45.058594 11.085938 C 46.269531 9.878906 47.722656 9.273438 49.421875 9.273438 L 61.777344 9.273438 C 63.476562 9.273438 64.929688 9.878906 66.140625 11.085938 C 67.347656 12.296875 67.953125 13.75 67.953125 15.449219 L 67.953125 27.804688 C 67.953125 29.503906 67.347656 30.957031 66.140625 32.167969 C 64.929688 33.378906 63.476562 33.984375 61.777344 33.984375 Z M 47.875 29.351562 L 63.320312 29.351562 L 63.320312 13.90625 L 47.875 13.90625 Z M 6.175781 23.945312 L 6.175781 19.3125 L 33.976562 19.3125 L 33.976562 23.945312 Z M 55.597656 52.515625 Z M 55.597656 21.628906 Z M 55.597656 21.628906 " fill-opacity="1" fill-rule="nonzero"/></svg>