<svg xmlns="http://www.w3.org/2000/svg" xmlns:xlink="http://www.w3.org/1999/xlink" width="100" zoomAndPan="magnify" viewBox="0 0 75.119995 83.04" height="100" preserveAspectRatio="xMidYMid meet" version="1.0"><defs><clipPath id="778d909cfa"><path d="M 45.277344 11 L 66.824219 11 L 66.824219 31.613281 L 45.277344 31.613281 Z M 45.277344 11 " clip-rule="nonzero"/></clipPath><clipPath id="e809d9028d"><path d="M 54.710938 12.089844 C 58.265625 13.128906 63.53125 16.984375 63.976562 19.652344 C 64.347656 22.097656 60.863281 27.730469 59.824219 27.582031 C 58.785156 27.433594 57.082031 19.949219 57.75 18.019531 C 58.121094 16.835938 59.230469 15.871094 60.269531 15.796875 C 61.601562 15.722656 63.976562 17.351562 65.011719 18.6875 C 66.125 20.023438 66.792969 22.246094 66.71875 24.023438 C 66.644531 25.730469 65.53125 27.878906 64.421875 29.066406 C 63.605469 30.105469 62.417969 30.695312 61.234375 31.066406 C 60.046875 31.4375 58.933594 31.808594 57.453125 31.289062 C 54.339844 30.03125 45.589844 22.246094 45.292969 18.6875 C 45.144531 16.390625 47.519531 13.5 49.59375 12.609375 C 52.039062 11.644531 59.453125 13.867188 59.453125 14.238281 C 59.453125 14.460938 54.636719 14.238281 54.5625 14.609375 C 54.488281 15.054688 58.046875 15.574219 59.304688 16.6875 C 60.492188 17.796875 61.527344 19.652344 61.824219 21.207031 C 62.121094 22.839844 61.601562 25.0625 61.085938 26.398438 C 60.714844 27.285156 60.269531 27.878906 59.527344 28.472656 C 58.414062 29.363281 56.191406 30.472656 54.855469 30.769531 C 53.894531 30.992188 53.078125 30.84375 52.261719 30.695312 C 51.375 30.472656 50.558594 30.324219 49.742188 29.734375 C 48.628906 28.992188 47 27.136719 46.332031 25.878906 C 45.886719 24.988281 45.738281 24.320312 45.738281 23.285156 C 45.738281 21.949219 46.109375 19.652344 47 18.316406 C 47.890625 16.910156 49.816406 15.648438 51.078125 15.054688 C 51.964844 14.683594 52.632812 14.535156 53.671875 14.609375 C 55.078125 14.683594 57.304688 15.203125 58.636719 16.167969 C 59.898438 17.128906 61.085938 19.058594 61.601562 20.390625 C 61.972656 21.28125 62.046875 22.023438 61.898438 22.988281 C 61.75 24.394531 60.9375 26.695312 60.121094 27.878906 C 59.527344 28.695312 59.007812 29.140625 58.121094 29.585938 C 56.933594 30.253906 54.785156 31.289062 53.078125 30.769531 C 50.78125 30.105469 45.886719 24.617188 46.332031 23.726562 C 46.851562 22.765625 53.152344 25.953125 55.449219 24.914062 C 57.527344 24.023438 59.527344 21.058594 59.75 18.910156 C 59.972656 16.539062 55.449219 12.015625 56.191406 11.199219 C 56.859375 10.457031 61.675781 12.089844 63.308594 13.648438 C 65.085938 15.351562 66.867188 20.835938 66.347656 21.132812 C 65.828125 21.503906 60.121094 16.019531 60.269531 15.796875 C 60.34375 15.648438 63.976562 17.351562 65.011719 18.6875 C 66.125 20.023438 66.71875 22.394531 66.71875 24.023438 C 66.71875 25.285156 66.347656 26.472656 65.605469 27.582031 C 64.71875 28.917969 62.863281 30.472656 61.234375 31.066406 C 59.601562 31.585938 57.675781 31.363281 55.746094 31.066406 C 53.449219 30.695312 49.296875 30.546875 48.257812 28.695312 C 47 26.25 53.226562 16.167969 52.335938 15.574219 C 51.667969 15.128906 46.628906 20.6875 46.480469 20.613281 C 46.40625 20.539062 52.1875 14.089844 52.484375 14.3125 C 52.78125 14.535156 48.777344 18.910156 49 20.984375 C 49.296875 23.210938 54.785156 26.546875 54.414062 27.136719 C 54.191406 27.507812 51.964844 26.917969 50.929688 26.398438 C 49.890625 25.953125 48.777344 25.210938 48.039062 24.320312 C 47.222656 23.433594 46.628906 22.246094 46.40625 21.132812 C 46.109375 20.023438 46.035156 18.761719 46.480469 17.574219 C 46.925781 16.09375 48.183594 14.164062 49.519531 13.277344 C 50.929688 12.3125 54.710938 12.089844 54.710938 12.089844 " clip-rule="nonzero"/></clipPath><clipPath id="1859d48606"><path d="M 0.277344 0 L 21.824219 0 L 21.824219 20.613281 L 0.277344 20.613281 Z M 0.277344 0 " clip-rule="nonzero"/></clipPath><clipPath id="32a85796be"><path d="M 9.710938 1.089844 C 13.265625 2.128906 18.53125 5.984375 18.976562 8.652344 C 19.347656 11.097656 15.863281 16.730469 14.824219 16.582031 C 13.785156 16.433594 12.082031 8.949219 12.75 7.019531 C 13.121094 5.835938 14.230469 4.871094 15.269531 4.796875 C 16.601562 4.722656 18.976562 6.351562 20.011719 7.6875 C 21.125 9.023438 21.792969 11.246094 21.71875 13.023438 C 21.644531 14.730469 20.53125 16.878906 19.421875 18.066406 C 18.605469 19.105469 17.417969 19.695312 16.234375 20.066406 C 15.046875 20.4375 13.933594 20.808594 12.453125 20.289062 C 9.339844 19.03125 0.589844 11.246094 0.292969 7.6875 C 0.144531 5.390625 2.519531 2.5 4.59375 1.609375 C 7.039062 0.644531 14.453125 2.867188 14.453125 3.238281 C 14.453125 3.460938 9.636719 3.238281 9.5625 3.609375 C 9.488281 4.054688 13.046875 4.574219 14.304688 5.6875 C 15.492188 6.796875 16.527344 8.652344 16.824219 10.207031 C 17.121094 11.839844 16.601562 14.0625 16.085938 15.398438 C 15.714844 16.285156 15.269531 16.878906 14.527344 17.472656 C 13.414062 18.363281 11.191406 19.472656 9.855469 19.769531 C 8.894531 19.992188 8.078125 19.84375 7.261719 19.695312 C 6.375 19.472656 5.558594 19.324219 4.742188 18.734375 C 3.628906 17.992188 2 16.136719 1.332031 14.878906 C 0.886719 13.988281 0.738281 13.320312 0.738281 12.285156 C 0.738281 10.949219 1.109375 8.652344 2 7.316406 C 2.890625 5.910156 4.816406 4.648438 6.078125 4.054688 C 6.964844 3.683594 7.632812 3.535156 8.671875 3.609375 C 10.078125 3.683594 12.304688 4.203125 13.636719 5.167969 C 14.898438 6.128906 16.085938 8.058594 16.601562 9.390625 C 16.972656 10.28125 17.046875 11.023438 16.898438 11.988281 C 16.75 13.394531 15.9375 15.695312 15.121094 16.878906 C 14.527344 17.695312 14.007812 18.140625 13.121094 18.585938 C 11.933594 19.253906 9.785156 20.289062 8.078125 19.769531 C 5.78125 19.105469 0.886719 13.617188 1.332031 12.726562 C 1.851562 11.765625 8.152344 14.953125 10.449219 13.914062 C 12.527344 13.023438 14.527344 10.058594 14.75 7.910156 C 14.972656 5.539062 10.449219 1.015625 11.191406 0.199219 C 11.859375 -0.542969 16.675781 1.089844 18.308594 2.648438 C 20.085938 4.351562 21.867188 9.835938 21.347656 10.132812 C 20.828125 10.503906 15.121094 5.019531 15.269531 4.796875 C 15.34375 4.648438 18.976562 6.351562 20.011719 7.6875 C 21.125 9.023438 21.71875 11.394531 21.71875 13.023438 C 21.71875 14.285156 21.347656 15.472656 20.605469 16.582031 C 19.71875 17.917969 17.863281 19.472656 16.234375 20.066406 C 14.601562 20.585938 12.675781 20.363281 10.746094 20.066406 C 8.449219 19.695312 4.296875 19.546875 3.257812 17.695312 C 2 15.25 8.226562 5.167969 7.335938 4.574219 C 6.667969 4.128906 1.628906 9.6875 1.480469 9.613281 C 1.40625 9.539062 7.1875 3.089844 7.484375 3.3125 C 7.78125 3.535156 3.777344 7.910156 4 9.984375 C 4.296875 12.210938 9.785156 15.546875 9.414062 16.136719 C 9.191406 16.507812 6.964844 15.917969 5.929688 15.398438 C 4.890625 14.953125 3.777344 14.210938 3.039062 13.320312 C 2.222656 12.433594 1.628906 11.246094 1.40625 10.132812 C 1.109375 9.023438 1.035156 7.761719 1.480469 6.574219 C 1.925781 5.09375 3.183594 3.164062 4.519531 2.277344 C 5.929688 1.3125 9.710938 1.089844 9.710938 1.089844 " clip-rule="nonzero"/></clipPath><clipPath id="4cb6846efc"><rect x="0" width="22" y="0" height="21"/></clipPath><clipPath id="3f476167ba"><path d="M 45.089844 16.84375 L 59.632812 16.84375 L 59.632812 31.710938 L 45.089844 31.710938 Z M 45.089844 16.84375 " clip-rule="nonzero"/></clipPath><clipPath id="4c741f3b47"><path d="M 59.601562 22.023438 C 59.601562 26.695312 59.082031 27.953125 58.414062 28.84375 C 57.675781 29.734375 56.636719 30.546875 55.597656 30.992188 C 54.5625 31.511719 53.226562 31.734375 52.113281 31.660156 C 50.929688 31.585938 49.667969 31.214844 48.703125 30.621094 C 47.742188 30.03125 46.777344 29.066406 46.183594 28.101562 C 45.589844 27.136719 45.21875 25.878906 45.144531 24.691406 C 45.070312 23.582031 45.292969 22.246094 45.8125 21.207031 C 46.257812 20.171875 47.074219 19.132812 47.964844 18.390625 C 48.851562 17.722656 50.113281 17.203125 51.226562 16.984375 C 52.335938 16.761719 53.671875 16.835938 54.785156 17.203125 C 55.820312 17.5 57.824219 18.984375 57.824219 18.984375 " clip-rule="nonzero"/></clipPath><clipPath id="e6716f85a7"><path d="M 0.0898438 0.84375 L 14.632812 0.84375 L 14.632812 15.710938 L 0.0898438 15.710938 Z M 0.0898438 0.84375 " clip-rule="nonzero"/></clipPath><clipPath id="2217a7f848"><path d="M 14.601562 6.023438 C 14.601562 10.695312 14.082031 11.953125 13.414062 12.84375 C 12.675781 13.734375 11.636719 14.546875 10.597656 14.992188 C 9.5625 15.511719 8.226562 15.734375 7.113281 15.660156 C 5.929688 15.585938 4.667969 15.214844 3.703125 14.621094 C 2.742188 14.03125 1.777344 13.066406 1.183594 12.101562 C 0.589844 11.136719 0.21875 9.878906 0.144531 8.691406 C 0.0703125 7.582031 0.292969 6.246094 0.8125 5.207031 C 1.257812 4.171875 2.074219 3.132812 2.964844 2.390625 C 3.851562 1.722656 5.113281 1.203125 6.226562 0.984375 C 7.335938 0.761719 8.671875 0.835938 9.785156 1.203125 C 10.820312 1.5 12.824219 2.984375 12.824219 2.984375 " clip-rule="nonzero"/></clipPath><clipPath id="61fdd0bae6"><rect x="0" width="15" y="0" height="16"/></clipPath><clipPath id="3414dbc746"><path d="M 45.601562 42.347656 L 66.425781 42.347656 L 66.425781 63.171875 L 45.601562 63.171875 Z M 45.601562 42.347656 " clip-rule="nonzero"/></clipPath><clipPath id="dd57d673b0"><path d="M 50.484375 58.050781 C 48.257812 55.085938 46.332031 49.082031 47.445312 46.710938 C 48.332031 44.632812 51.449219 43.152344 53.746094 42.632812 C 56.042969 42.1875 59.601562 42.1875 61.234375 43.816406 C 63.308594 45.894531 63.382812 56.125 63.308594 56.125 C 63.308594 56.125 63.011719 49.453125 61.824219 47.96875 C 61.011719 47.078125 58.710938 46.859375 58.710938 46.859375 C 58.710938 46.785156 61.308594 47.226562 62.34375 47.820312 C 63.382812 48.414062 64.421875 49.230469 65.085938 50.339844 C 65.902344 51.75 66.421875 54.195312 66.347656 55.753906 C 66.199219 57.085938 65.753906 58.199219 64.9375 59.238281 C 63.902344 60.496094 62.046875 61.683594 60.269531 62.277344 C 58.339844 63.019531 55.523438 63.316406 53.449219 63.019531 C 51.742188 62.871094 49.964844 62.351562 48.703125 61.386719 C 47.445312 60.421875 46.332031 58.71875 45.886719 57.234375 C 45.515625 55.679688 45.589844 53.675781 46.183594 52.195312 C 46.851562 50.710938 48.40625 49.15625 49.519531 48.339844 C 50.261719 47.820312 50.929688 47.523438 51.890625 47.449219 C 53.226562 47.226562 55.597656 47.523438 56.933594 47.96875 C 57.824219 48.339844 58.414062 48.859375 59.007812 49.453125 C 59.601562 50.046875 60.195312 50.636719 60.566406 51.527344 C 61.085938 52.789062 61.601562 54.9375 61.308594 56.496094 C 61.085938 58.050781 60.121094 59.832031 58.933594 60.941406 C 57.75 61.980469 55.894531 62.871094 54.339844 63.019531 C 52.78125 63.167969 50.632812 62.5 49.445312 61.90625 C 48.554688 61.460938 48.039062 60.867188 47.445312 60.199219 C 46.925781 59.609375 46.480469 58.941406 46.183594 58.050781 C 45.8125 56.71875 45.515625 54.492188 45.960938 53.011719 C 46.40625 51.453125 47.519531 49.75 48.777344 48.859375 C 50.039062 47.894531 51.816406 47.523438 53.597656 47.226562 C 55.671875 46.859375 58.710938 46.636719 60.566406 47.078125 C 61.972656 47.449219 62.9375 47.96875 63.902344 48.933594 C 65.011719 50.046875 66.125 52.34375 66.347656 53.898438 C 66.570312 55.160156 66.273438 56.496094 65.828125 57.605469 C 65.382812 58.71875 64.570312 59.832031 63.679688 60.644531 C 62.714844 61.386719 61.234375 62.054688 60.269531 62.277344 C 59.601562 62.5 59.15625 62.648438 58.414062 62.5 C 57.082031 62.277344 54.414062 61.683594 53.003906 60.273438 C 51.226562 58.496094 49.371094 54.566406 49.519531 51.972656 C 49.59375 49.601562 52.261719 45.152344 52.929688 45.300781 C 53.820312 45.523438 51.816406 56.496094 53.449219 57.457031 C 54.785156 58.199219 59.007812 55.828125 60.121094 53.972656 C 61.234375 52.046875 59.15625 46.339844 59.824219 46.117188 C 60.34375 45.96875 62.417969 49.082031 62.9375 50.5625 C 63.382812 51.75 63.382812 52.9375 63.160156 54.121094 C 62.9375 55.234375 62.417969 56.421875 61.675781 57.382812 C 60.9375 58.273438 60.046875 59.089844 58.859375 59.535156 C 57.453125 60.128906 55.078125 60.273438 53.597656 59.90625 C 52.335938 59.609375 50.484375 58.050781 50.484375 58.050781 " clip-rule="nonzero"/></clipPath><clipPath id="d35f8b9bc3"><path d="M 0.601562 0.347656 L 21.425781 0.347656 L 21.425781 21.171875 L 0.601562 21.171875 Z M 0.601562 0.347656 " clip-rule="nonzero"/></clipPath><clipPath id="5a71131294"><path d="M 5.484375 16.050781 C 3.257812 13.085938 1.332031 7.082031 2.445312 4.710938 C 3.332031 2.632812 6.449219 1.152344 8.746094 0.632812 C 11.042969 0.1875 14.601562 0.1875 16.234375 1.816406 C 18.308594 3.894531 18.382812 14.125 18.308594 14.125 C 18.308594 14.125 18.011719 7.453125 16.824219 5.96875 C 16.011719 5.078125 13.710938 4.859375 13.710938 4.859375 C 13.710938 4.785156 16.308594 5.226562 17.34375 5.820312 C 18.382812 6.414062 19.421875 7.230469 20.085938 8.339844 C 20.902344 9.75 21.421875 12.195312 21.347656 13.753906 C 21.199219 15.085938 20.753906 16.199219 19.9375 17.238281 C 18.902344 18.496094 17.046875 19.683594 15.269531 20.277344 C 13.339844 21.019531 10.523438 21.316406 8.449219 21.019531 C 6.742188 20.871094 4.964844 20.351562 3.703125 19.386719 C 2.445312 18.421875 1.332031 16.71875 0.886719 15.234375 C 0.515625 13.679688 0.589844 11.675781 1.183594 10.195312 C 1.851562 8.710938 3.40625 7.15625 4.519531 6.339844 C 5.261719 5.820312 5.929688 5.523438 6.890625 5.449219 C 8.226562 5.226562 10.597656 5.523438 11.933594 5.96875 C 12.824219 6.339844 13.414062 6.859375 14.007812 7.453125 C 14.601562 8.046875 15.195312 8.636719 15.566406 9.527344 C 16.085938 10.789062 16.601562 12.9375 16.308594 14.496094 C 16.085938 16.050781 15.121094 17.832031 13.933594 18.941406 C 12.75 19.980469 10.894531 20.871094 9.339844 21.019531 C 7.78125 21.167969 5.632812 20.5 4.445312 19.90625 C 3.554688 19.460938 3.039062 18.867188 2.445312 18.199219 C 1.925781 17.609375 1.480469 16.941406 1.183594 16.050781 C 0.8125 14.71875 0.515625 12.492188 0.960938 11.011719 C 1.40625 9.453125 2.519531 7.75 3.777344 6.859375 C 5.039062 5.894531 6.816406 5.523438 8.597656 5.226562 C 10.671875 4.859375 13.710938 4.636719 15.566406 5.078125 C 16.972656 5.449219 17.9375 5.96875 18.902344 6.933594 C 20.011719 8.046875 21.125 10.34375 21.347656 11.898438 C 21.570312 13.160156 21.273438 14.496094 20.828125 15.605469 C 20.382812 16.71875 19.570312 17.832031 18.679688 18.644531 C 17.714844 19.386719 16.234375 20.054688 15.269531 20.277344 C 14.601562 20.5 14.15625 20.648438 13.414062 20.5 C 12.082031 20.277344 9.414062 19.683594 8.003906 18.273438 C 6.226562 16.496094 4.371094 12.566406 4.519531 9.972656 C 4.59375 7.601562 7.261719 3.152344 7.929688 3.300781 C 8.820312 3.523438 6.816406 14.496094 8.449219 15.457031 C 9.785156 16.199219 14.007812 13.828125 15.121094 11.972656 C 16.234375 10.046875 14.15625 4.339844 14.824219 4.117188 C 15.34375 3.96875 17.417969 7.082031 17.9375 8.5625 C 18.382812 9.75 18.382812 10.9375 18.160156 12.121094 C 17.9375 13.234375 17.417969 14.421875 16.675781 15.382812 C 15.9375 16.273438 15.046875 17.089844 13.859375 17.535156 C 12.453125 18.128906 10.078125 18.273438 8.597656 17.90625 C 7.335938 17.609375 5.484375 16.050781 5.484375 16.050781 " clip-rule="nonzero"/></clipPath><clipPath id="b615d09058"><rect x="0" width="22" y="0" height="22"/></clipPath><clipPath id="72f9ce3f90"><path d="M 51.613281 42.496094 L 66.15625 42.496094 L 66.15625 57.359375 L 51.613281 57.359375 Z M 51.613281 42.496094 " clip-rule="nonzero"/></clipPath><clipPath id="c7e1e1fa59"><path d="M 66.125 47.746094 C 66.125 52.417969 65.605469 53.601562 64.863281 54.492188 C 64.199219 55.382812 63.160156 56.199219 62.046875 56.71875 C 61.011719 57.160156 59.75 57.382812 58.5625 57.308594 C 57.453125 57.234375 56.191406 56.863281 55.226562 56.273438 C 54.191406 55.679688 53.300781 54.714844 52.707031 53.75 C 52.113281 52.789062 51.667969 51.527344 51.667969 50.414062 C 51.59375 49.230469 51.816406 47.96875 52.261719 46.859375 C 52.78125 45.820312 53.597656 44.78125 54.488281 44.113281 C 55.375 43.375 56.5625 42.855469 57.675781 42.632812 C 58.859375 42.410156 60.121094 42.484375 61.234375 42.855469 C 62.34375 43.226562 64.273438 44.707031 64.273438 44.707031 " clip-rule="nonzero"/></clipPath><clipPath id="46c65164e7"><path d="M 0.613281 0.496094 L 15.15625 0.496094 L 15.15625 15.359375 L 0.613281 15.359375 Z M 0.613281 0.496094 " clip-rule="nonzero"/></clipPath><clipPath id="4b64ef4606"><path d="M 15.125 5.746094 C 15.125 10.417969 14.605469 11.601562 13.863281 12.492188 C 13.199219 13.382812 12.160156 14.199219 11.046875 14.71875 C 10.011719 15.160156 8.75 15.382812 7.5625 15.308594 C 6.453125 15.234375 5.191406 14.863281 4.226562 14.273438 C 3.191406 13.679688 2.300781 12.714844 1.707031 11.75 C 1.113281 10.789062 0.667969 9.527344 0.667969 8.414062 C 0.59375 7.230469 0.816406 5.96875 1.261719 4.859375 C 1.78125 3.820312 2.597656 2.78125 3.488281 2.113281 C 4.375 1.375 5.5625 0.855469 6.675781 0.632812 C 7.859375 0.410156 9.121094 0.484375 10.234375 0.855469 C 11.34375 1.226562 13.273438 2.707031 13.273438 2.707031 " clip-rule="nonzero"/></clipPath><clipPath id="3bdb7e7ec7"><rect x="0" width="16" y="0" height="16"/></clipPath><clipPath id="a936bac413"><path d="M 46.496094 41.828125 L 61.039062 41.828125 L 61.039062 56.691406 L 46.496094 56.691406 Z M 46.496094 41.828125 " clip-rule="nonzero"/></clipPath><clipPath id="8d5eee10d5"><path d="M 61.011719 47.003906 C 61.011719 51.675781 60.492188 52.863281 59.824219 53.824219 C 59.082031 54.714844 58.046875 55.53125 57.007812 55.976562 C 55.96875 56.496094 54.636719 56.71875 53.523438 56.644531 C 52.335938 56.570312 51.078125 56.199219 50.113281 55.605469 C 49.148438 55.011719 48.183594 54.046875 47.59375 53.085938 C 47 52.046875 46.628906 50.785156 46.554688 49.675781 C 46.480469 48.5625 46.703125 47.226562 47.222656 46.191406 C 47.667969 45.152344 48.480469 44.113281 49.371094 43.375 C 50.261719 42.707031 51.519531 42.113281 52.632812 41.964844 C 53.746094 41.742188 55.078125 41.816406 56.191406 42.1875 C 57.230469 42.484375 59.230469 43.964844 59.230469 43.964844 " clip-rule="nonzero"/></clipPath><clipPath id="6da1994dc5"><path d="M 0.496094 0.828125 L 15.039062 0.828125 L 15.039062 15.691406 L 0.496094 15.691406 Z M 0.496094 0.828125 " clip-rule="nonzero"/></clipPath><clipPath id="24f8fbae31"><path d="M 15.011719 6.003906 C 15.011719 10.675781 14.492188 11.863281 13.824219 12.824219 C 13.082031 13.714844 12.046875 14.53125 11.007812 14.976562 C 9.96875 15.496094 8.636719 15.71875 7.523438 15.644531 C 6.335938 15.570312 5.078125 15.199219 4.113281 14.605469 C 3.148438 14.011719 2.183594 13.046875 1.59375 12.085938 C 1 11.046875 0.628906 9.785156 0.554688 8.675781 C 0.480469 7.5625 0.703125 6.226562 1.222656 5.191406 C 1.667969 4.152344 2.480469 3.113281 3.371094 2.375 C 4.261719 1.707031 5.519531 1.113281 6.632812 0.964844 C 7.746094 0.742188 9.078125 0.816406 10.191406 1.1875 C 11.230469 1.484375 13.230469 2.964844 13.230469 2.964844 " clip-rule="nonzero"/></clipPath><clipPath id="9fbe8c1da6"><rect x="0" width="16" y="0" height="16"/></clipPath><clipPath id="85af4ca1cb"><path d="M 45.238281 42.347656 L 59.78125 42.347656 L 59.78125 57.210938 L 45.238281 57.210938 Z M 45.238281 42.347656 " clip-rule="nonzero"/></clipPath><clipPath id="e5e5c516eb"><path d="M 59.75 47.597656 C 59.75 52.269531 59.230469 53.457031 58.488281 54.34375 C 57.824219 55.234375 56.785156 56.050781 55.746094 56.570312 C 54.710938 57.011719 53.375 57.234375 52.261719 57.160156 C 51.078125 57.085938 49.816406 56.71875 48.851562 56.125 C 47.890625 55.53125 46.925781 54.640625 46.332031 53.601562 C 45.738281 52.640625 45.367188 51.378906 45.292969 50.265625 C 45.21875 49.082031 45.441406 47.820312 45.960938 46.785156 C 46.40625 45.671875 47.222656 44.632812 48.113281 43.964844 C 49 43.226562 50.261719 42.707031 51.375 42.484375 C 52.484375 42.261719 53.820312 42.410156 54.929688 42.707031 C 55.96875 43.078125 57.898438 44.558594 57.898438 44.558594 " clip-rule="nonzero"/></clipPath><clipPath id="fdcbd1ff7b"><path d="M 0.238281 0.347656 L 14.78125 0.347656 L 14.78125 15.210938 L 0.238281 15.210938 Z M 0.238281 0.347656 " clip-rule="nonzero"/></clipPath><clipPath id="729cf4fde6"><path d="M 14.75 5.597656 C 14.75 10.269531 14.230469 11.457031 13.488281 12.34375 C 12.824219 13.234375 11.785156 14.050781 10.746094 14.570312 C 9.710938 15.011719 8.375 15.234375 7.261719 15.160156 C 6.078125 15.085938 4.816406 14.71875 3.851562 14.125 C 2.890625 13.53125 1.925781 12.640625 1.332031 11.601562 C 0.738281 10.640625 0.367188 9.378906 0.292969 8.265625 C 0.21875 7.082031 0.441406 5.820312 0.960938 4.785156 C 1.40625 3.671875 2.222656 2.632812 3.113281 1.964844 C 4 1.226562 5.261719 0.707031 6.375 0.484375 C 7.484375 0.261719 8.820312 0.410156 9.929688 0.707031 C 10.96875 1.078125 12.898438 2.558594 12.898438 2.558594 " clip-rule="nonzero"/></clipPath><clipPath id="f92310c489"><rect x="0" width="15" y="0" height="16"/></clipPath></defs><path fill="#0b0c10" d="M 49.421875 64.871094 C 47.722656 64.871094 46.269531 64.265625 45.058594 63.058594 C 43.847656 61.847656 43.242188 60.394531 43.242188 58.695312 L 43.242188 46.339844 C 43.242188 44.640625 43.847656 43.183594 45.058594 41.976562 C 46.269531 40.765625 47.722656 40.160156 49.421875 40.160156 L 61.777344 40.160156 C 63.476562 40.160156 64.929688 40.765625 66.140625 41.976562 C 67.347656 43.183594 67.953125 44.640625 67.953125 46.339844 L 67.953125 58.695312 C 67.953125 60.394531 67.347656 61.847656 66.140625 63.058594 C 64.929688 64.265625 63.476562 64.871094 61.777344 64.871094 Z M 47.875 60.238281 L 63.320312 60.238281 L 63.320312 44.792969 L 47.875 44.792969 Z M 6.175781 54.832031 L 6.175781 50.199219 L 33.976562 50.199219 L 33.976562 54.832031 Z M 49.421875 33.984375 C 47.722656 33.984375 46.269531 33.378906 45.058594 32.167969 C 43.847656 30.957031 43.242188 29.503906 43.242188 27.804688 L 43.242188 15.449219 C 43.242188 13.75 43.847656 12.296875 45.058594 11.085938 C 46.269531 9.878906 47.722656 9.273438 49.421875 9.273438 L 61.777344 9.273438 C 63.476562 9.273438 64.929688 9.878906 66.140625 11.085938 C 67.347656 12.296875 67.953125 13.75 67.953125 15.449219 L 67.953125 27.804688 C 67.953125 29.503906 67.347656 30.957031 66.140625 32.167969 C 64.929688 33.378906 63.476562 33.984375 61.777344 33.984375 Z M 47.875 29.351562 L 63.320312 29.351562 L 63.320312 13.90625 L 47.875 13.90625 Z M 6.175781 23.945312 L 6.175781 19.3125 L 33.976562 19.3125 L 33.976562 23.945312 Z M 55.597656 52.515625 Z M 55.597656 21.628906 Z M 55.597656 21.628906 " fill-opacity="1" fill-rule="nonzero"/><g clip-path="url(#778d909cfa)"><g clip-path="url(#e809d9028d)"><g transform="matrix(1, 0, 0, 1, 45, 11)"><g clip-path="url(#4cb6846efc)"><g clip-path="url(#1859d48606)"><g clip-path="url(#32a85796be)"><rect x="-61.526399" width="108.172793" fill="#0b0c10" height="119.5776" y="-29.2688" fill-opacity="1"/></g></g></g></g></g></g><g clip-path="url(#3f476167ba)"><g clip-path="url(#4c741f3b47)"><g transform="matrix(1, 0, 0, 1, 45, 16)"><g clip-path="url(#61fdd0bae6)"><g clip-path="url(#e6716f85a7)"><g clip-path="url(#2217a7f848)"><rect x="-61.526399" width="108.172793" fill="#0b0c10" height="119.5776" y="-34.2688" fill-opacity="1"/></g></g></g></g></g></g><g clip-path="url(#3414dbc746)"><g clip-path="url(#dd57d673b0)"><g transform="matrix(1, 0, 0, 1, 45, 42)"><g clip-path="url(#b615d09058)"><g clip-path="url(#d35f8b9bc3)"><g clip-path="url(#5a71131294)"><rect x="-61.526399" width="108.172793" fill="#0b0c10" height="119.5776" y="-60.2688" fill-opacity="1"/></g></g></g></g></g></g><g clip-path="url(#72f9ce3f90)"><g clip-path="url(#c7e1e1fa59)"><g transform="matrix(1, 0, 0, 1, 51, 42)"><g clip-path="url(#3bdb7e7ec7)"><g clip-path="url(#46c65164e7)"><g clip-path="url(#4b64ef4606)"><rect x="-67.526399" width="108.172793" fill="#0b0c10" height="119.5776" y="-60.2688" fill-opacity="1"/></g></g></g></g></g></g><g clip-path="url(#a936bac413)"><g clip-path="url(#8d5eee10d5)"><g transform="matrix(1, 0, 0, 1, 46, 41)"><g clip-path="url(#9fbe8c1da6)"><g clip-path="url(#6da1994dc5)"><g clip-path="url(#24f8fbae31)"><rect x="-62.526399" width="108.172793" fill="#0b0c10" height="119.5776" y="-59.2688" fill-opacity="1"/></g></g></g></g></g></g><g clip-path="url(#85af4ca1cb)"><g clip-path="url(#e5e5c516eb)"><g transform="matrix(1, 0, 0, 1, 45, 42)"><g clip-path="url(#f92310c489)"><g clip-path="url(#fdcbd1ff7b)"><g clip-path="url(#729cf4fde6)"><rect x="-61.526399" width="108.172793" fill="#0b0c10" height="119.5776" y="-60.2688" fill-opacity="1"/></g></g></g></g></g></g></svg>