<svg xmlns="http://www.w3.org/2000/svg" xmlns:xlink="http://www.w3.org/1999/xlink" width="100" zoomAndPan="magnify" viewBox="0 0 75.119995 83.04" height="100" preserveAspectRatio="xMidYMid meet" version="1.0"><path fill="#0b0c10" d="M 37.066406 36.996094 C 33.667969 36.996094 30.886719 35.914062 28.726562 33.75 C 26.5625 31.589844 25.484375 28.808594 25.484375 25.410156 C 25.484375 22.015625 26.5625 19.234375 28.726562 17.070312 C 30.886719 14.910156 33.667969 13.828125 37.066406 13.828125 C 40.464844 13.828125 43.242188 14.910156 45.40625 17.070312 C 47.566406 19.234375 48.648438 22.015625 48.648438 25.410156 C 48.648438 28.808594 47.566406 31.589844 45.40625 33.75 C 43.242188 35.914062 40.464844 36.996094 37.066406 36.996094 Z M 12.355469 61.78125 L 12.355469 54.523438 C 12.355469 52.566406 12.84375 50.894531 13.824219 49.503906 C 14.800781 48.113281 16.0625 47.058594 17.605469 46.339844 C 21.054688 44.792969 24.363281 43.636719 27.527344 42.863281 C 30.695312 42.089844 33.875 41.707031 37.066406 41.707031 C 40.257812 41.707031 43.421875 42.105469 46.5625 42.902344 C 49.703125 43.699219 52.996094 44.851562 56.441406 46.351562 C 58.054688 47.082031 59.34375 48.136719 60.316406 49.515625 C 61.289062 50.898438 61.777344 52.566406 61.777344 54.523438 L 61.777344 61.78125 Z M 16.988281 57.148438 L 57.144531 57.148438 L 57.144531 54.523438 C 57.144531 53.699219 56.898438 52.914062 56.410156 52.167969 C 55.921875 51.421875 55.316406 50.867188 54.59375 50.507812 C 51.300781 48.914062 48.289062 47.820312 45.558594 47.226562 C 42.832031 46.632812 40 46.339844 37.066406 46.339844 C 34.132812 46.339844 31.273438 46.632812 28.496094 47.226562 C 25.714844 47.820312 22.703125 48.914062 19.460938 50.507812 C 18.738281 50.867188 18.148438 51.421875 17.683594 52.167969 C 17.21875 52.914062 16.988281 53.699219 16.988281 54.523438 Z M 37.066406 32.363281 C 39.074219 32.363281 40.734375 31.707031 42.046875 30.390625 C 43.359375 29.078125 44.015625 27.417969 44.015625 25.410156 C 44.015625 23.402344 43.359375 21.742188 42.046875 20.429688 C 40.734375 19.117188 39.074219 18.460938 37.066406 18.460938 C 35.058594 18.460938 33.398438 19.117188 32.085938 20.429688 C 30.773438 21.742188 30.117188 23.402344 30.117188 25.410156 C 30.117188 27.417969 30.773438 29.078125 32.085938 30.390625 C 33.398438 31.707031 35.058594 32.363281 37.066406 32.363281 Z M 37.066406 25.410156 Z M 37.066406 57.148438 Z M 37.066406 57.148438 " fill-opacity="1" fill-rule="nonzero"/></svg>