<svg xmlns="http://www.w3.org/2000/svg" xmlns:xlink="http://www.w3.org/1999/xlink" width="100" zoomAndPan="magnify" viewBox="0 0 75 74.999997" height="100" preserveAspectRatio="xMidYMid meet" version="1.0"><defs><clipPath id="70cb840f81"><path d="M 29.941406 18.3125 L 44.65625 18.3125 L 44.65625 33.351562 L 29.941406 33.351562 Z M 29.941406 18.3125 " clip-rule="nonzero"/></clipPath><clipPath id="22c113c8d4"><path d="M 44.625 23.550781 C 44.625 28.273438 44.101562 29.476562 43.351562 30.449219 C 42.675781 31.351562 41.625 32.175781 40.574219 32.625 C 39.449219 33.148438 38.175781 33.375 36.976562 33.300781 C 35.851562 33.226562 34.574219 32.851562 33.601562 32.25 C 32.625 31.648438 31.648438 30.675781 31.050781 29.699219 C 30.449219 28.648438 30.074219 27.375 30 26.25 C 29.925781 25.125 30.148438 23.773438 30.601562 22.726562 C 31.125 21.675781 31.949219 20.625 32.851562 19.875 C 33.75 19.199219 34.949219 18.601562 36.148438 18.449219 C 37.273438 18.226562 38.625 18.300781 39.675781 18.601562 C 40.800781 18.976562 42.75 20.476562 42.75 20.476562 " clip-rule="nonzero"/></clipPath><clipPath id="44f112b7c1"><path d="M 0.941406 0.3125 L 15.640625 0.3125 L 15.640625 15.351562 L 0.941406 15.351562 Z M 0.941406 0.3125 " clip-rule="nonzero"/></clipPath><clipPath id="45394b14d9"><path d="M 15.625 5.550781 C 15.625 10.273438 15.101562 11.476562 14.351562 12.449219 C 13.675781 13.351562 12.625 14.175781 11.574219 14.625 C 10.449219 15.148438 9.175781 15.375 7.976562 15.300781 C 6.851562 15.226562 5.574219 14.851562 4.601562 14.25 C 3.625 13.648438 2.648438 12.675781 2.050781 11.699219 C 1.449219 10.648438 1.074219 9.375 1 8.25 C 0.925781 7.125 1.148438 5.773438 1.601562 4.726562 C 2.125 3.675781 2.949219 2.625 3.851562 1.875 C 4.75 1.199219 5.949219 0.601562 7.148438 0.449219 C 8.273438 0.226562 9.625 0.300781 10.675781 0.601562 C 11.800781 0.976562 13.75 2.476562 13.75 2.476562 " clip-rule="nonzero"/></clipPath><clipPath id="551c66e1d8"><rect x="0" width="16" y="0" height="16"/></clipPath><clipPath id="a2d15298b2"><path d="M 15.847656 44.257812 L 59.613281 44.257812 L 59.613281 60.792969 L 15.847656 60.792969 Z M 15.847656 44.257812 " clip-rule="nonzero"/></clipPath><clipPath id="06fec099e6"><path d="M 20.101562 51.523438 C 53.023438 52.648438 52.351562 55.351562 51.074219 56.175781 C 48.824219 57.675781 38.773438 53.699219 35.023438 53.324219 C 33.074219 53.175781 32.023438 53.175781 30.601562 53.324219 C 29.175781 53.476562 27.75 53.851562 26.476562 54.375 C 25.273438 54.824219 24.074219 55.351562 23.25 56.324219 C 22.273438 57.375 22.050781 60.148438 21.074219 60.601562 C 20.324219 61.050781 19.050781 60.601562 18.226562 60.148438 C 17.398438 59.773438 16.648438 58.875 16.273438 58.050781 C 15.898438 57.226562 15.75 56.101562 15.976562 55.199219 C 16.125 54.375 16.648438 53.324219 17.398438 52.800781 C 18.375 52.050781 20.324219 51.523438 21.523438 51.824219 C 22.726562 52.199219 24.226562 53.550781 24.601562 54.75 C 24.976562 55.949219 24.675781 57.898438 23.925781 58.949219 C 23.175781 59.925781 21.300781 60.675781 20.101562 60.675781 C 19.125 60.75 18.148438 60.226562 17.398438 59.625 C 16.726562 59.023438 16.050781 58.125 15.976562 57.148438 C 15.75 56.023438 16.351562 54 17.101562 53.101562 C 17.699219 52.351562 19.648438 51.976562 19.574219 51.75 C 19.574219 51.523438 17.175781 51.976562 17.023438 51.601562 C 16.800781 51.148438 18.449219 49.574219 19.351562 48.675781 C 20.398438 47.773438 21.375 46.949219 22.875 46.273438 C 24.898438 45.449219 28.351562 44.699219 30.601562 44.476562 C 32.398438 44.25 33.449219 44.25 35.398438 44.476562 C 38.476562 44.773438 43.425781 45.675781 47.25 46.875 C 51 48.074219 56.175781 49.574219 58.050781 51.523438 C 59.175781 52.648438 59.699219 54.148438 59.550781 55.425781 C 59.476562 56.773438 58.351562 58.648438 57.148438 59.398438 C 55.875 60.226562 54.523438 59.925781 52.125 60 C 45.976562 60.300781 23.851562 60.523438 19.351562 59.101562 C 18.074219 58.726562 17.625 58.273438 17.101562 57.601562 C 16.574219 56.925781 16.273438 55.800781 16.351562 54.976562 C 16.425781 54.148438 16.949219 53.101562 17.550781 52.5 C 18.148438 51.976562 20.101562 51.523438 20.101562 51.523438 " clip-rule="nonzero"/></clipPath><clipPath id="10df0bee58"><path d="M 0.847656 0.257812 L 44.613281 0.257812 L 44.613281 16.792969 L 0.847656 16.792969 Z M 0.847656 0.257812 " clip-rule="nonzero"/></clipPath><clipPath id="9fa8105156"><path d="M 5.101562 7.523438 C 38.023438 8.648438 37.351562 11.351562 36.074219 12.175781 C 33.824219 13.675781 23.773438 9.699219 20.023438 9.324219 C 18.074219 9.175781 17.023438 9.175781 15.601562 9.324219 C 14.175781 9.476562 12.75 9.851562 11.476562 10.375 C 10.273438 10.824219 9.074219 11.351562 8.25 12.324219 C 7.273438 13.375 7.050781 16.148438 6.074219 16.601562 C 5.324219 17.050781 4.050781 16.601562 3.226562 16.148438 C 2.398438 15.773438 1.648438 14.875 1.273438 14.050781 C 0.898438 13.226562 0.75 12.101562 0.976562 11.199219 C 1.125 10.375 1.648438 9.324219 2.398438 8.800781 C 3.375 8.050781 5.324219 7.523438 6.523438 7.824219 C 7.726562 8.199219 9.226562 9.550781 9.601562 10.75 C 9.976562 11.949219 9.675781 13.898438 8.925781 14.949219 C 8.175781 15.925781 6.300781 16.675781 5.101562 16.675781 C 4.125 16.75 3.148438 16.226562 2.398438 15.625 C 1.726562 15.023438 1.050781 14.125 0.976562 13.148438 C 0.75 12.023438 1.351562 10 2.101562 9.101562 C 2.699219 8.351562 4.648438 7.976562 4.574219 7.75 C 4.574219 7.523438 2.175781 7.976562 2.023438 7.601562 C 1.800781 7.148438 3.449219 5.574219 4.351562 4.675781 C 5.398438 3.773438 6.375 2.949219 7.875 2.273438 C 9.898438 1.449219 13.351562 0.699219 15.601562 0.476562 C 17.398438 0.25 18.449219 0.25 20.398438 0.476562 C 23.476562 0.773438 28.425781 1.675781 32.25 2.875 C 36 4.074219 41.175781 5.574219 43.050781 7.523438 C 44.175781 8.648438 44.699219 10.148438 44.550781 11.425781 C 44.476562 12.773438 43.351562 14.648438 42.148438 15.398438 C 40.875 16.226562 39.523438 15.925781 37.125 16 C 30.976562 16.300781 8.851562 16.523438 4.351562 15.101562 C 3.074219 14.726562 2.625 14.273438 2.101562 13.601562 C 1.574219 12.925781 1.273438 11.800781 1.351562 10.976562 C 1.425781 10.148438 1.949219 9.101562 2.550781 8.5 C 3.148438 7.976562 5.101562 7.523438 5.101562 7.523438 " clip-rule="nonzero"/></clipPath><clipPath id="da9c42882e"><rect x="0" width="45" y="0" height="17"/></clipPath><clipPath id="4967a5476b"><path d="M 16.816406 49.921875 L 24.097656 49.921875 L 24.097656 57.410156 L 16.816406 57.410156 Z M 16.816406 49.921875 " clip-rule="nonzero"/></clipPath><clipPath id="c2cbca3d9e"><path d="M 24.074219 52.5 C 23.925781 55.199219 22.800781 56.550781 22.050781 57.074219 C 21.449219 57.375 20.925781 57.449219 20.25 57.375 C 19.351562 57.226562 17.773438 56.476562 17.25 55.574219 C 16.726562 54.675781 16.800781 52.949219 17.101562 52.050781 C 17.25 51.449219 17.699219 51 18.148438 50.699219 C 18.601562 50.324219 19.125 49.949219 19.800781 49.949219 C 20.699219 49.875 23.101562 51 23.101562 51 " clip-rule="nonzero"/></clipPath><clipPath id="2a5415208a"><path d="M 0.816406 0.921875 L 8.097656 0.921875 L 8.097656 8.410156 L 0.816406 8.410156 Z M 0.816406 0.921875 " clip-rule="nonzero"/></clipPath><clipPath id="47ce8e19a7"><path d="M 8.074219 3.5 C 7.925781 6.199219 6.800781 7.550781 6.050781 8.074219 C 5.449219 8.375 4.925781 8.449219 4.25 8.375 C 3.351562 8.226562 1.773438 7.476562 1.25 6.574219 C 0.726562 5.675781 0.800781 3.949219 1.101562 3.050781 C 1.25 2.449219 1.699219 2 2.148438 1.699219 C 2.601562 1.324219 3.125 0.949219 3.800781 0.949219 C 4.699219 0.875 7.101562 2 7.101562 2 " clip-rule="nonzero"/></clipPath><clipPath id="234a95b9f8"><rect x="0" width="9" y="0" height="9"/></clipPath><clipPath id="8fe7157b27"><path d="M 38.675781 23.65625 L 45.917969 23.65625 L 45.917969 31.148438 L 38.675781 31.148438 Z M 38.675781 23.65625 " clip-rule="nonzero"/></clipPath><clipPath id="71f0ddde00"><path d="M 45.898438 26.25 C 44.925781 30.226562 44.398438 30.523438 43.875 30.75 C 43.351562 31.050781 42.75 31.199219 42.074219 31.125 C 41.175781 30.976562 39.675781 30.148438 39.074219 29.324219 C 38.550781 28.425781 38.625 26.699219 38.925781 25.800781 C 39.074219 25.199219 39.523438 24.75 39.976562 24.449219 C 40.5 24.074219 41.023438 23.699219 41.625 23.699219 C 42.523438 23.625 45 24.75 45 24.75 " clip-rule="nonzero"/></clipPath><clipPath id="402678fce5"><path d="M 0.675781 0.65625 L 7.917969 0.65625 L 7.917969 8.148438 L 0.675781 8.148438 Z M 0.675781 0.65625 " clip-rule="nonzero"/></clipPath><clipPath id="07184e0a21"><path d="M 7.898438 3.25 C 6.925781 7.226562 6.398438 7.523438 5.875 7.75 C 5.351562 8.050781 4.75 8.199219 4.074219 8.125 C 3.175781 7.976562 1.675781 7.148438 1.074219 6.324219 C 0.550781 5.425781 0.625 3.699219 0.925781 2.800781 C 1.074219 2.199219 1.523438 1.75 1.976562 1.449219 C 2.5 1.074219 3.023438 0.699219 3.625 0.699219 C 4.523438 0.625 7 1.75 7 1.75 " clip-rule="nonzero"/></clipPath><clipPath id="d4a6c881ce"><rect x="0" width="8" y="0" height="9"/></clipPath><clipPath id="52e262ccab"><path d="M 32.648438 18.925781 L 45.191406 18.925781 L 45.191406 29.769531 L 32.648438 29.769531 Z M 32.648438 18.925781 " clip-rule="nonzero"/></clipPath><clipPath id="a19523bc66"><path d="M 37.949219 27.75 C 37.351562 25.875 39.523438 25.425781 39.523438 25.425781 C 39.523438 25.425781 37.125 26.851562 36.074219 26.699219 C 34.949219 26.550781 33.601562 25.351562 33.074219 24.523438 C 32.699219 23.773438 32.625 22.800781 32.773438 22.050781 C 32.925781 21.226562 33.375 20.398438 34.050781 19.875 C 34.875 19.273438 36.523438 18.75 37.574219 19.050781 C 38.625 19.273438 39.898438 20.476562 40.273438 21.523438 C 40.648438 22.5 40.273438 24.226562 39.75 25.125 C 39.300781 25.800781 38.476562 26.324219 37.726562 26.550781 C 36.976562 26.773438 36 26.851562 35.25 26.476562 C 34.273438 26.023438 33.074219 24.75 32.773438 23.699219 C 32.550781 22.648438 32.851562 20.851562 33.75 20.175781 C 35.023438 19.125 39.449219 19.125 41.25 19.800781 C 42.523438 20.398438 43.351562 21.675781 43.949219 22.726562 C 44.550781 23.699219 45.226562 24.898438 45.148438 25.949219 C 45.074219 27 44.324219 28.425781 43.5 29.101562 C 42.824219 29.625 41.699219 29.851562 40.875 29.699219 C 39.898438 29.550781 37.949219 27.75 37.949219 27.75 " clip-rule="nonzero"/></clipPath><clipPath id="9da076e9d4"><path d="M 0.648438 0.925781 L 13.191406 0.925781 L 13.191406 11.769531 L 0.648438 11.769531 Z M 0.648438 0.925781 " clip-rule="nonzero"/></clipPath><clipPath id="4f9c3539eb"><path d="M 5.949219 9.75 C 5.351562 7.875 7.523438 7.425781 7.523438 7.425781 C 7.523438 7.425781 5.125 8.851562 4.074219 8.699219 C 2.949219 8.550781 1.601562 7.351562 1.074219 6.523438 C 0.699219 5.773438 0.625 4.800781 0.773438 4.050781 C 0.925781 3.226562 1.375 2.398438 2.050781 1.875 C 2.875 1.273438 4.523438 0.75 5.574219 1.050781 C 6.625 1.273438 7.898438 2.476562 8.273438 3.523438 C 8.648438 4.5 8.273438 6.226562 7.75 7.125 C 7.300781 7.800781 6.476562 8.324219 5.726562 8.550781 C 4.976562 8.773438 4 8.851562 3.25 8.476562 C 2.273438 8.023438 1.074219 6.75 0.773438 5.699219 C 0.550781 4.648438 0.851562 2.851562 1.75 2.175781 C 3.023438 1.125 7.449219 1.125 9.25 1.800781 C 10.523438 2.398438 11.351562 3.675781 11.949219 4.726562 C 12.550781 5.699219 13.226562 6.898438 13.148438 7.949219 C 13.074219 9 12.324219 10.425781 11.5 11.101562 C 10.824219 11.625 9.699219 11.851562 8.875 11.699219 C 7.898438 11.550781 5.949219 9.75 5.949219 9.75 " clip-rule="nonzero"/></clipPath><clipPath id="60c949f697"><rect x="0" width="14" y="0" height="12"/></clipPath></defs><path fill="#0b0c10" d="M 37.5 37.421875 C 34.0625 37.421875 31.25 36.328125 29.0625 34.140625 C 26.875 31.953125 25.78125 29.140625 25.78125 25.703125 C 25.78125 22.265625 26.875 19.453125 29.0625 17.265625 C 31.25 15.078125 34.0625 13.984375 37.5 13.984375 C 40.9375 13.984375 43.75 15.078125 45.9375 17.265625 C 48.125 19.453125 49.21875 22.265625 49.21875 25.703125 C 49.21875 29.140625 48.125 31.953125 45.9375 34.140625 C 43.75 36.328125 40.9375 37.421875 37.5 37.421875 Z M 12.5 62.5 L 12.5 55.15625 C 12.5 53.175781 12.996094 51.484375 13.984375 50.078125 C 14.972656 48.671875 16.25 47.605469 17.8125 46.875 C 21.300781 45.3125 24.648438 44.140625 27.851562 43.359375 C 31.054688 42.578125 34.269531 42.1875 37.5 42.1875 C 40.730469 42.1875 43.933594 42.589844 47.109375 43.398438 C 50.285156 44.207031 53.617188 45.371094 57.101562 46.890625 C 58.734375 47.625 60.039062 48.691406 61.023438 50.089844 C 62.007812 51.488281 62.5 53.175781 62.5 55.15625 L 62.5 62.5 Z M 17.1875 57.8125 L 57.8125 57.8125 L 57.8125 55.15625 C 57.8125 54.324219 57.566406 53.527344 57.070312 52.773438 C 56.574219 52.019531 55.964844 51.457031 55.234375 51.09375 C 51.902344 49.480469 48.855469 48.371094 46.09375 47.773438 C 43.332031 47.175781 40.46875 46.875 37.5 46.875 C 34.53125 46.875 31.640625 47.175781 28.828125 47.773438 C 26.015625 48.371094 22.96875 49.480469 19.6875 51.09375 C 18.957031 51.457031 18.359375 52.019531 17.890625 52.773438 C 17.421875 53.527344 17.1875 54.324219 17.1875 55.15625 Z M 37.5 32.734375 C 39.53125 32.734375 41.210938 32.070312 42.539062 30.742188 C 43.867188 29.414062 44.53125 27.734375 44.53125 25.703125 C 44.53125 23.671875 43.867188 21.992188 42.539062 20.664062 C 41.210938 19.335938 39.53125 18.671875 37.5 18.671875 C 35.46875 18.671875 33.789062 19.335938 32.460938 20.664062 C 31.132812 21.992188 30.46875 23.671875 30.46875 25.703125 C 30.46875 27.734375 31.132812 29.414062 32.460938 30.742188 C 33.789062 32.070312 35.46875 32.734375 37.5 32.734375 Z M 37.5 25.703125 Z M 37.5 57.8125 Z M 37.5 57.8125 " fill-opacity="1" fill-rule="nonzero"/><g clip-path="url(#70cb840f81)"><g clip-path="url(#22c113c8d4)"><g transform="matrix(1, 0, 0, 1, 29, 18)"><g clip-path="url(#551c66e1d8)"><g clip-path="url(#44f112b7c1)"><g clip-path="url(#45394b14d9)"><rect x="-45.5" width="108" fill="#0b0c10" height="107.999996" y="-34.499999" fill-opacity="1"/></g></g></g></g></g></g><g clip-path="url(#a2d15298b2)"><g clip-path="url(#06fec099e6)"><g transform="matrix(1, 0, 0, 1, 15, 44)"><g clip-path="url(#da9c42882e)"><g clip-path="url(#10df0bee58)"><g clip-path="url(#9fa8105156)"><rect x="-31.5" width="108" fill="#0b0c10" height="107.999996" y="-60.499999" fill-opacity="1"/></g></g></g></g></g></g><g clip-path="url(#4967a5476b)"><g clip-path="url(#c2cbca3d9e)"><g transform="matrix(1, 0, 0, 1, 16, 49)"><g clip-path="url(#234a95b9f8)"><g clip-path="url(#2a5415208a)"><g clip-path="url(#47ce8e19a7)"><rect x="-32.5" width="108" fill="#0b0c10" height="107.999996" y="-65.499999" fill-opacity="1"/></g></g></g></g></g></g><g clip-path="url(#8fe7157b27)"><g clip-path="url(#71f0ddde00)"><g transform="matrix(1, 0, 0, 1, 38, 23)"><g clip-path="url(#d4a6c881ce)"><g clip-path="url(#402678fce5)"><g clip-path="url(#07184e0a21)"><rect x="-54.5" width="108" fill="#0b0c10" height="107.999996" y="-39.499999" fill-opacity="1"/></g></g></g></g></g></g><g clip-path="url(#52e262ccab)"><g clip-path="url(#a19523bc66)"><g transform="matrix(1, 0, 0, 1, 32, 18)"><g clip-path="url(#60c949f697)"><g clip-path="url(#9da076e9d4)"><g clip-path="url(#4f9c3539eb)"><rect x="-48.5" width="108" fill="#0b0c10" height="107.999996" y="-34.499999" fill-opacity="1"/></g></g></g></g></g></g></svg>