<svg xmlns="http://www.w3.org/2000/svg" xmlns:xlink="http://www.w3.org/1999/xlink" width="100" zoomAndPan="magnify" viewBox="0 0 75.119995 83.04" height="100" preserveAspectRatio="xMidYMid meet" version="1.0"><path fill="#0b0c10" d="M 22.394531 67.960938 C 19.621094 67.960938 17.253906 66.980469 15.296875 65.019531 C 13.335938 63.0625 12.355469 60.695312 12.355469 57.921875 L 12.355469 16.222656 C 12.355469 13.449219 13.335938 11.082031 15.296875 9.125 C 17.253906 7.164062 19.621094 6.183594 22.394531 6.183594 L 61.777344 6.183594 L 61.777344 52.515625 C 60.4375 52.515625 59.332031 53.058594 58.457031 54.136719 C 57.582031 55.21875 57.144531 56.480469 57.144531 57.921875 C 57.144531 59.363281 57.582031 60.625 58.457031 61.707031 C 59.332031 62.785156 60.4375 63.328125 61.777344 63.328125 L 61.777344 67.960938 Z M 16.988281 49.425781 C 17.761719 48.914062 18.597656 48.527344 19.5 48.269531 C 20.398438 48.011719 21.363281 47.882812 22.394531 47.882812 L 24.710938 47.882812 L 24.710938 10.816406 L 22.394531 10.816406 C 20.890625 10.816406 19.617188 11.34375 18.566406 12.394531 C 17.515625 13.445312 16.988281 14.722656 16.988281 16.222656 Z M 29.34375 47.882812 L 57.144531 47.882812 L 57.144531 10.816406 L 29.34375 10.816406 Z M 16.988281 49.425781 L 16.988281 10.816406 Z M 22.359375 63.328125 L 53.976562 63.328125 C 53.515625 62.554688 53.152344 61.707031 52.894531 60.777344 C 52.636719 59.851562 52.511719 58.898438 52.511719 57.921875 C 52.511719 56.890625 52.636719 55.925781 52.894531 55.027344 C 53.152344 54.125 53.539062 53.289062 54.054688 52.515625 L 22.363281 52.515625 C 20.890625 52.515625 19.625 53.042969 18.570312 54.09375 C 17.515625 55.144531 16.988281 56.421875 16.988281 57.921875 C 16.988281 59.414062 17.515625 60.6875 18.570312 61.742188 C 19.625 62.800781 20.890625 63.328125 22.359375 63.328125 Z M 22.359375 63.328125 " fill-opacity="1" fill-rule="nonzero"/></svg>